<svg width="60" height="60" viewBox="0 0 60 60" fill="none" xmlns="http://www.w3.org/2000/svg">
<path fill-rule="evenodd" clip-rule="evenodd" d="M6.75205 7.52301H53.2499C53.5628 7.52301 53.8456 7.39444 54.0513 7.18873C54.257 6.98301 54.3856 6.69801 54.3856 6.3873C54.3856 6.07658 54.257 5.79158 54.0513 5.58587C53.8456 5.38016 53.5606 5.25158 53.2499 5.25158H6.75205C6.43919 5.25158 6.15633 5.38016 5.95062 5.58587C5.7449 5.79158 5.61633 6.07658 5.61633 6.3873C5.61633 6.70016 5.7449 6.98301 5.95062 7.18873C6.15419 7.39444 6.43919 7.52301 6.75205 7.52301ZM30.857 46.5594C31.2813 46.6966 31.6628 46.9323 31.9713 47.2409C32.4749 47.7444 32.7878 48.443 32.7878 49.2123C32.7878 49.9816 32.4749 50.6802 31.9713 51.1837C31.4678 51.6873 30.7692 52.0002 29.9999 52.0002C29.2306 52.0002 28.532 51.6873 28.0285 51.1837C27.5249 50.6802 27.212 49.9816 27.212 49.2123C27.212 48.443 27.5249 47.7444 28.0285 47.2409C28.337 46.9323 28.7185 46.6966 29.1428 46.5594V44.1102H22.9992L15.7713 56.048C15.6106 56.3137 15.3299 56.4594 15.0406 56.4594L11.0528 56.4637C10.5792 56.4637 10.1956 56.0802 10.1956 55.6066C10.1956 55.4716 10.2278 55.343 10.2835 55.2273L14.7706 44.1102H6.75205C6.27847 44.1102 5.8949 43.7266 5.8949 43.253V9.10658C5.45347 8.9673 5.05705 8.72087 4.73776 8.40158C4.22133 7.88516 3.8999 7.17158 3.8999 6.3873C3.8999 5.60301 4.22133 4.88944 4.73776 4.37301C5.25419 3.85658 5.96776 3.53516 6.75205 3.53516H53.2499C54.0342 3.53516 54.7478 3.85658 55.2642 4.37301C55.7806 4.88944 56.102 5.60301 56.102 6.3873C56.102 7.17158 55.7806 7.88516 55.2642 8.40158C54.9449 8.72087 54.5485 8.9673 54.107 9.10658V43.2552C54.107 43.7287 53.7235 44.1123 53.2499 44.1123H45.2292L49.7142 55.2273C49.7699 55.3409 49.802 55.4694 49.802 55.6066C49.802 56.0802 49.4185 56.4637 48.9449 56.4637L44.957 56.4594C44.6678 56.4594 44.387 56.3137 44.2263 56.048L36.9985 44.1102H30.857V46.5594ZM30.7585 48.4537C30.5635 48.2587 30.2956 48.1387 29.9999 48.1387C29.7042 48.1387 29.4342 48.2587 29.2413 48.4537C29.0463 48.6487 28.9263 48.9166 28.9263 49.2123C28.9263 49.508 29.0463 49.778 29.2413 49.9709C29.4363 50.1659 29.7042 50.2859 29.9999 50.2859C30.2956 50.2859 30.5656 50.1659 30.7585 49.9709C30.9535 49.7759 31.0735 49.508 31.0735 49.2123C31.0735 48.9166 30.9535 48.6487 30.7585 48.4537ZM15.4006 13.5423H19.7163C20.1899 13.5423 20.5735 13.1587 20.5735 12.6852C20.5735 12.2116 20.1899 11.828 19.7163 11.828H15.4006C14.927 11.828 14.5435 12.2116 14.5435 12.6852C14.5435 13.1587 14.927 13.5423 15.4006 13.5423ZM15.4006 19.9709H25.4613C25.9349 19.9709 26.3185 19.5873 26.3185 19.1137C26.3185 18.6402 25.9349 18.2566 25.4613 18.2566H15.4006C14.927 18.2566 14.5435 18.6402 14.5435 19.1137C14.5435 19.5873 14.927 19.9709 15.4006 19.9709ZM15.4006 16.7566H25.4613C25.9349 16.7566 26.3185 16.373 26.3185 15.8994C26.3185 15.4259 25.9349 15.0423 25.4613 15.0423H15.4006C14.927 15.0423 14.5435 15.4259 14.5435 15.8994C14.5435 16.373 14.927 16.7566 15.4006 16.7566ZM41.5156 14.6159L42.4178 14.9994L15.0663 26.6566C14.6313 26.8409 14.4299 27.3444 14.6142 27.7773C14.7985 28.2123 15.302 28.4137 15.7349 28.2294L42.9792 16.6152L42.6428 17.4123C42.4585 17.8473 42.6599 18.3487 43.0949 18.533C43.5299 18.7173 44.0313 18.5159 44.2156 18.0809L45.3856 15.3316C45.5699 14.8966 45.3685 14.3952 44.9335 14.2109L42.1842 13.0409C41.7492 12.8566 41.2478 13.058 41.0635 13.493C40.877 13.928 41.0806 14.4294 41.5156 14.6159ZM38.1556 36.9487H43.7399V23.6909H38.1556V36.9487ZM44.5992 38.663C45.0728 38.663 45.4563 38.2794 45.4563 37.8059V22.8337C45.4563 22.3602 45.0728 21.9766 44.5992 21.9766H37.3006C36.827 21.9766 36.4435 22.3602 36.4435 22.8337V37.8059C36.4435 38.2794 36.827 38.663 37.3006 38.663H44.5992ZM27.2078 36.9487H32.792V28.3602H27.2078V36.9487ZM33.6492 38.663C34.1228 38.663 34.5063 38.2794 34.5063 37.8059V27.503C34.5063 27.0294 34.1228 26.6459 33.6492 26.6459H26.3506C25.877 26.6459 25.4935 27.0294 25.4935 27.503V37.8059C25.4935 38.2794 25.877 38.663 26.3506 38.663H33.6492ZM16.2578 36.9487H21.842V33.0273H16.2578V36.9487ZM22.7013 38.663C23.1749 38.663 23.5585 38.2794 23.5585 37.8059V32.1702C23.5585 31.6966 23.1749 31.313 22.7013 31.313H15.4006C14.927 31.313 14.5435 31.6966 14.5435 32.1702V37.8059C14.5435 38.2794 14.927 38.663 15.4006 38.663H22.7013ZM43.3842 44.1102H38.9956L45.437 54.7494H47.6785L43.3842 44.1102ZM21.0042 44.1102H16.6156L12.3235 54.7494H14.5649L21.0042 44.1102ZM52.3906 9.2373H7.60919V42.3959H52.3928V9.2373H52.3906Z" fill="#00B7DF"/>
</svg>
