<svg width="53" height="60" viewBox="0 0 53 60" fill="none" xmlns="http://www.w3.org/2000/svg">
<path fill-rule="evenodd" clip-rule="evenodd" d="M10.2115 44.0625C9.7428 44.0625 9.39124 43.7109 9.39124 43.2422V23.0859C9.39124 20.9766 11.149 19.3359 13.2584 19.3359C15.3678 19.3359 17.0084 20.9766 17.0084 23.0859V39.0234C17.0084 39.4922 16.6569 39.8438 16.1881 39.8438C15.7194 39.8438 15.3678 39.4922 15.3678 39.0234V23.0859C15.3678 21.9141 14.4303 20.9766 13.2584 20.9766C12.0865 20.9766 11.0319 21.9141 11.0319 23.0859V43.2422C11.0319 43.7109 10.6803 44.0625 10.2115 44.0625Z" fill="#00B7DF"/>
<path fill-rule="evenodd" clip-rule="evenodd" d="M22.1647 41.4844C21.6959 41.4844 21.3444 41.1328 21.3444 40.6641V34.6875C21.3444 33.5156 20.4069 32.5781 19.235 32.5781C18.0631 32.5781 17.0084 33.5156 17.0084 34.6875V39.0234C17.0084 39.4922 16.6569 39.8438 16.1881 39.8438C15.7194 39.8438 15.3678 39.4922 15.3678 39.0234V34.6875C15.3678 32.5781 17.1256 30.9375 19.235 30.9375C21.3444 30.9375 22.985 32.5781 22.985 34.6875V40.6641C22.985 41.1328 22.6334 41.4844 22.1647 41.4844Z" fill="#00B7DF"/>
<path fill-rule="evenodd" clip-rule="evenodd" d="M28.1412 42.7734C27.6725 42.7734 27.3209 42.4219 27.3209 41.9531V37.9688C27.3209 36.7969 26.3834 35.8594 25.2115 35.8594C24.0397 35.8594 22.985 36.7969 22.985 37.9688V40.6641C22.985 41.1328 22.6334 41.4844 22.1647 41.4844C21.6959 41.4844 21.3444 41.1328 21.3444 40.6641V37.9688C21.3444 35.8594 23.1022 34.2188 25.2115 34.2188C27.3209 34.2188 28.9615 35.8594 28.9615 37.9688V41.9531C28.9615 42.4219 28.61 42.7734 28.1412 42.7734Z" fill="#00B7DF"/>
<path fill-rule="evenodd" clip-rule="evenodd" d="M34.1178 44.0625C33.649 44.0625 33.2975 43.7109 33.2975 43.2422V40.6641C33.2975 39.7266 32.4772 38.9062 31.5397 38.9062H30.8365C29.7819 38.9062 28.9615 39.7266 28.9615 40.6641V41.6016C28.9615 42.0703 28.61 42.4219 28.1412 42.4219C27.6725 42.4219 27.3209 42.0703 27.3209 41.6016V40.6641C27.3209 38.7891 28.9615 37.2656 30.8365 37.2656H31.5397C33.4147 37.2656 34.9381 38.7891 34.9381 40.6641V43.2422C34.9381 43.7109 34.5865 44.0625 34.1178 44.0625Z" fill="#00B7DF"/>
<path fill-rule="evenodd" clip-rule="evenodd" d="M10.9147 59.9991C10.6803 59.9991 10.3287 59.8819 10.2115 59.5303C8.92247 57.0694 7.51622 54.4912 6.22716 52.0303C4.23497 48.2803 2.24279 44.4131 0.250598 40.4287C-0.100964 39.7256 -0.100964 38.9053 0.367786 38.2022C1.07091 37.1475 2.24279 36.4444 3.64904 36.5616C5.17247 36.5616 8.10216 37.4991 10.9147 42.8897C11.149 43.2412 11.0318 43.71 10.5631 43.9444C10.2115 44.1787 9.74279 44.0616 9.50841 43.5928C6.93029 38.7881 4.58654 38.2022 3.64904 38.2022C2.71154 38.085 2.00841 38.5537 1.77404 39.0225C1.65685 39.1397 1.53966 39.3741 1.65685 39.7256C3.64904 43.5928 5.75841 47.46 7.7506 51.21C9.03966 53.7881 10.3287 56.2491 11.6178 58.8272C11.8522 59.1787 11.735 59.6475 11.2662 59.8819C11.149 59.9991 11.0318 59.9991 10.9147 59.9991Z" fill="#00B7DF"/>
<path fill-rule="evenodd" clip-rule="evenodd" d="M32.2428 60H10.9147C10.4459 60 10.0944 59.6484 10.0944 59.1797C10.0944 58.7109 10.4459 58.3594 10.9147 58.3594H32.2428C32.8287 58.3594 33.2975 57.8906 33.2975 57.1875V43.2422C33.2975 42.7734 33.649 42.4219 34.1178 42.4219C34.5865 42.4219 34.9381 42.7734 34.9381 43.2422V57.1875C34.9381 58.8281 33.7662 60 32.2428 60Z" fill="#00B7DF"/>
<path fill-rule="evenodd" clip-rule="evenodd" d="M16.1881 24.6094C15.8365 24.6094 15.485 24.375 15.3678 23.9062C15.3678 23.5547 15.6022 23.0859 16.0709 22.9688C20.9928 21.9141 24.5084 17.4609 24.5084 12.4219C24.5084 6.44531 19.7037 1.64062 13.7272 1.64062C7.75061 1.64062 2.82874 6.44531 2.82874 12.4219C2.82874 17.1094 5.9928 21.4453 10.4459 22.7344C10.9147 22.8516 11.149 23.3203 11.0319 23.7891C10.9147 24.2578 10.4459 24.4922 9.97717 24.375C4.82092 22.7344 1.18811 17.9297 1.18811 12.4219C1.18811 5.625 6.81311 0 13.7272 0C20.6412 0 26.149 5.625 26.149 12.4219C26.149 18.2812 22.1647 23.3203 16.4225 24.6094C16.3053 24.6094 16.3053 24.6094 16.1881 24.6094Z" fill="#00B7DF"/>
<path fill-rule="evenodd" clip-rule="evenodd" d="M11.8522 17.6953C11.6178 17.6953 11.5006 17.5781 11.2662 17.4609L6.22717 12.4219C5.9928 12.0703 5.9928 11.6016 6.22717 11.25C6.57874 10.8984 7.04749 10.8984 7.39905 11.25L11.8522 15.7031L20.0553 7.5C20.4069 7.14844 20.9928 7.14844 21.2272 7.5C21.5787 7.85156 21.5787 8.32031 21.2272 8.67188L12.4381 17.4609C12.3209 17.5781 12.0865 17.6953 11.8522 17.6953Z" fill="#00B7DF"/>
<path fill-rule="evenodd" clip-rule="evenodd" d="M40.5631 24.8438C37.2819 24.8438 34.1178 23.5547 31.774 21.2109C29.4303 18.8672 28.1412 15.7031 28.1412 12.4219C28.1412 9.02344 29.4303 5.97656 31.774 3.63281C34.1178 1.28906 37.2819 0 40.5631 0C43.9615 0 47.0084 1.28906 49.3522 3.63281C51.6959 5.97656 52.985 9.02344 52.985 12.4219C52.985 15.7031 51.6959 18.8672 49.3522 21.2109C47.0084 23.5547 43.9615 24.8438 40.5631 24.8438ZM40.5631 1.64062C34.5865 1.64062 29.7819 6.44531 29.7819 12.4219C29.7819 18.3984 34.5865 23.2031 40.5631 23.2031C46.5397 23.2031 51.3444 18.3984 51.3444 12.4219C51.3444 6.44531 46.5397 1.64062 40.5631 1.64062Z" fill="#00B7DF"/>
</svg>
