<svg width="70" height="70" viewBox="0 0 70 70" fill="none" xmlns="http://www.w3.org/2000/svg">
<path d="M17.5 36.0938V43.7501H13.125C12.8349 43.7501 12.5567 43.8653 12.3516 44.0704C12.1465 44.2755 12.0312 44.5537 12.0312 44.8438C12.0313 50.9355 14.4512 56.7777 18.7586 61.0852C23.0661 65.3927 28.9083 67.8126 35 67.8126C41.0917 67.8126 46.9339 65.3927 51.2414 61.0852C55.5488 56.7777 57.9688 50.9355 57.9688 44.8438C57.9688 44.5537 57.8535 44.2755 57.6484 44.0704C57.4433 43.8653 57.1651 43.7501 56.875 43.7501H52.5V36.0938C52.5 35.2236 52.1543 34.389 51.5389 33.7736C50.9236 33.1583 50.089 32.8126 49.2188 32.8126H48.8009C49.4754 32.2287 49.9553 31.4526 50.1762 30.5883C50.3971 29.724 50.3486 28.8128 50.037 27.9769C49.7255 27.141 49.1658 26.4202 48.4331 25.9114C47.7004 25.4025 46.8296 25.1298 45.9375 25.1298C45.0454 25.1298 44.1746 25.4025 43.4419 25.9114C42.7092 26.4202 42.1495 27.141 41.838 27.9769C41.5264 28.8128 41.4779 29.724 41.6988 30.5883C41.9197 31.4526 42.3996 32.2287 43.0741 32.8126H42.6562C41.8464 32.8154 41.0667 33.1195 40.4688 33.6657C39.8708 33.1195 39.0911 32.8154 38.2812 32.8126H37.8634C38.5379 32.2287 39.0178 31.4526 39.2387 30.5883C39.4596 29.724 39.4111 28.8128 39.0995 27.9769C38.788 27.141 38.2283 26.4202 37.4956 25.9114C36.7629 25.4025 35.8921 25.1298 35 25.1298C34.1079 25.1298 33.2371 25.4025 32.5044 25.9114C31.7717 26.4202 31.212 27.141 30.9005 27.9769C30.5889 28.8128 30.5404 29.724 30.7613 30.5883C30.9822 31.4526 31.4621 32.2287 32.1366 32.8126H31.7188C30.9089 32.8154 30.1292 33.1195 29.5312 33.6657C28.9333 33.1195 28.1536 32.8154 27.3438 32.8126H26.4841C26.9596 32.4078 27.3421 31.905 27.6052 31.3387C27.8684 30.7723 28.0061 30.1558 28.0087 29.5313C27.9905 28.3733 27.5177 27.2689 26.6923 26.4564C25.867 25.644 24.7553 25.1886 23.5971 25.1886C22.439 25.1886 21.3272 25.644 20.5019 26.4564C19.6765 27.2689 19.2037 28.3733 19.1855 29.5313C19.188 30.1574 19.3261 30.7756 19.5905 31.3432C19.8548 31.9108 20.2391 32.4143 20.7167 32.8191C19.8588 32.836 19.0417 33.1882 18.4404 33.8004C17.8391 34.4125 17.5016 35.2358 17.5 36.0938ZM23.5648 62.1798C21.4793 60.8011 19.6575 59.0601 18.1858 57.0391C20.0378 56.3571 21.945 55.8356 23.8864 55.4805C24.4664 57.6053 25.3031 59.6514 26.378 61.5738C25.3885 61.7474 24.4508 61.9493 23.5648 62.1798ZM26.0575 55.1251C31.9897 54.2865 38.0103 54.2865 43.9425 55.1251C43.3462 57.2755 42.4477 59.3304 41.2738 61.2282C37.104 60.7595 32.8949 60.7595 28.7252 61.2282C27.5513 59.3304 26.6531 57.2755 26.0575 55.1251ZM35 65.6251C32.0624 65.6222 29.1593 64.9916 26.4852 63.7755C27.0813 63.6662 27.6883 63.5634 28.3237 63.4759C32.7544 62.9221 37.2368 62.9221 41.6675 63.4759C42.303 63.5644 42.9144 63.6673 43.5127 63.7766C40.8391 64.9919 37.9368 65.6221 35 65.6251ZM46.4352 62.1798C45.5507 61.9501 44.613 61.7474 43.622 61.5716C44.6966 59.6491 45.5333 57.603 46.1136 55.4784C48.055 55.8335 49.9622 56.3549 51.8142 57.0369C50.3427 59.0587 48.5209 60.8004 46.4352 62.1798ZM55.7528 45.9376C55.5829 49.1834 54.6482 52.3431 53.025 55.159C50.9526 54.3562 48.8092 53.7502 46.6233 53.3488C47.1358 50.91 47.421 48.429 47.4753 45.9376H55.7528ZM45.9375 27.3438C46.3701 27.3438 46.7931 27.4721 47.1528 27.7125C47.5125 27.9528 47.7929 28.2945 47.9585 28.6942C48.1241 29.0939 48.1674 29.5337 48.083 29.9581C47.9986 30.3824 47.7902 30.7722 47.4843 31.0781C47.1784 31.384 46.7886 31.5924 46.3643 31.6768C45.9399 31.7612 45.5001 31.7179 45.1004 31.5523C44.7007 31.3867 44.359 31.1064 44.1187 30.7466C43.8783 30.3869 43.75 29.964 43.75 29.5313C43.75 28.9512 43.9805 28.3948 44.3907 27.9845C44.8009 27.5743 45.3573 27.3438 45.9375 27.3438ZM41.5625 36.0938C41.5625 35.8037 41.6777 35.5255 41.8829 35.3204C42.088 35.1153 42.3662 35.0001 42.6562 35.0001H49.2188C49.5088 35.0001 49.787 35.1153 49.9921 35.3204C50.1973 35.5255 50.3125 35.8037 50.3125 36.0938V43.7501H41.5625V36.0938ZM35 27.3438C35.4326 27.3438 35.8556 27.4721 36.2153 27.7125C36.575 27.9528 36.8554 28.2945 37.021 28.6942C37.1866 29.0939 37.2299 29.5337 37.1455 29.9581C37.0611 30.3824 36.8527 30.7722 36.5468 31.0781C36.2409 31.384 35.8511 31.5924 35.4268 31.6768C35.0024 31.7612 34.5626 31.7179 34.1629 31.5523C33.7632 31.3867 33.4215 31.1064 33.1812 30.7466C32.9408 30.3869 32.8125 29.964 32.8125 29.5313C32.8125 28.9512 33.043 28.3948 33.4532 27.9845C33.8634 27.5743 34.4198 27.3438 35 27.3438ZM30.625 36.0938C30.625 35.8037 30.7402 35.5255 30.9454 35.3204C31.1505 35.1153 31.4287 35.0001 31.7188 35.0001H38.2812C38.5713 35.0001 38.8495 35.1153 39.0546 35.3204C39.2598 35.5255 39.375 35.8037 39.375 36.0938V43.7501H30.625V36.0938ZM45.2878 45.9376C45.2342 48.3098 44.9581 50.6717 44.4631 52.9923C38.1886 52.0827 31.8157 52.0827 25.5412 52.9923C25.0449 50.6718 24.7673 48.3099 24.7122 45.9376H45.2878ZM23.5977 27.3438C24.0286 27.3511 24.4479 27.4856 24.8027 27.7304C25.1575 27.9752 25.4321 28.3193 25.5919 28.7196C25.7518 29.1199 25.7899 29.5586 25.7013 29.9804C25.6127 30.4023 25.4015 30.7886 25.0942 31.0908C24.7868 31.393 24.397 31.5977 23.9737 31.6791C23.5504 31.7605 23.1125 31.7151 22.715 31.5485C22.3174 31.3819 21.978 31.1016 21.7392 30.7427C21.5004 30.3838 21.373 29.9624 21.373 29.5313C21.3785 28.9464 21.6158 28.3876 22.0329 27.9774C22.45 27.5673 23.0127 27.3394 23.5977 27.3438ZM19.6875 36.0938C19.6875 35.8037 19.8027 35.5255 20.0079 35.3204C20.213 35.1153 20.4912 35.0001 20.7812 35.0001H27.3438C27.6338 35.0001 27.912 35.1153 28.1171 35.3204C28.3223 35.5255 28.4375 35.8037 28.4375 36.0938V43.7501H19.6875V36.0938ZM22.5247 45.9376C22.579 48.4286 22.8642 50.9093 23.3767 53.3477C21.1909 53.7501 19.0476 54.3565 16.975 55.159C15.3518 52.3431 14.4171 49.1834 14.2472 45.9376H22.5247ZM25.2208 14.3282C25.1538 14.5754 25.1379 14.8336 25.1742 15.0872C25.2105 15.3407 25.2982 15.5841 25.4319 15.8026L26.8417 18.1355C27.1125 18.5706 27.5395 18.8856 28.0351 19.0159C28.5307 19.1463 29.0574 19.0821 29.5072 18.8366L29.9184 18.6091C30.4469 18.9891 31.0172 19.3073 31.6181 19.5574V19.9391C31.6233 20.4572 31.8339 20.9521 32.2036 21.3151C32.5734 21.678 33.0721 21.8794 33.5902 21.8751H36.4098C36.927 21.8786 37.4245 21.6771 37.7935 21.3147C38.1624 20.9523 38.3728 20.4585 38.3786 19.9413V19.5596C38.9794 19.3092 39.5497 18.9911 40.0783 18.6113L40.4906 18.8388C40.9401 19.0846 41.4666 19.1491 41.9621 19.0189C42.4576 18.8887 42.8844 18.5738 43.155 18.1388L44.5648 15.8059C44.6985 15.5872 44.7862 15.3436 44.8225 15.0899C44.8588 14.8362 44.8429 14.5777 44.7759 14.3304C44.7072 14.0781 44.5885 13.8423 44.427 13.6367C44.2654 13.4312 44.0642 13.2602 43.8353 13.1338L43.4744 12.9359C43.5459 12.3349 43.5459 11.7277 43.4744 11.1268L43.8364 10.9277C44.0655 10.8021 44.267 10.6318 44.4289 10.4268C44.5909 10.2218 44.71 9.98636 44.7792 9.73444C44.8462 9.48726 44.8621 9.229 44.8258 8.97548C44.7895 8.72195 44.7018 8.47851 44.5681 8.26007L43.1583 5.92491C42.8877 5.48965 42.4607 5.17448 41.965 5.04411C41.4693 4.91373 40.9426 4.97804 40.4928 5.22382L40.0816 5.45132C39.5531 5.07132 38.9828 4.75315 38.3819 4.50304V4.12132C38.3761 3.6036 38.1653 3.1093 37.7956 2.7468C37.4259 2.3843 36.9276 2.18319 36.4098 2.18757H33.5902C33.073 2.18407 32.5755 2.38556 32.2065 2.74797C31.8376 3.11037 31.6272 3.60417 31.6214 4.12132V4.50304C31.0206 4.7534 30.4503 5.07155 29.9217 5.45132L29.5094 5.22382C29.0599 4.97827 28.5334 4.91398 28.038 5.04413C27.5426 5.17429 27.1158 5.48903 26.845 5.92382L25.4319 8.25679C25.2979 8.47573 25.2101 8.71973 25.1738 8.97383C25.1375 9.22792 25.1535 9.48675 25.2208 9.73444C25.2895 9.98669 25.4082 10.2226 25.5698 10.4281C25.7313 10.6336 25.9325 10.8047 26.1614 10.931L26.5223 11.129C26.4509 11.7299 26.4509 12.3371 26.5223 12.938L26.1603 13.1371C25.9321 13.2628 25.7313 13.433 25.57 13.6375C25.4086 13.8421 25.2899 14.077 25.2208 14.3282ZM28.6562 12.0313C28.6567 11.7616 28.6761 11.4922 28.7142 11.2252C28.7638 10.8417 28.6964 10.4522 28.5207 10.1077C28.345 9.76321 28.0694 9.47984 27.7298 9.29476L27.4531 9.14273L28.6092 7.22757L28.9636 7.42335C29.3036 7.60723 29.6891 7.69019 30.0747 7.66248C30.4603 7.63477 30.8299 7.49755 31.1402 7.26694C31.5739 6.94945 32.0457 6.68747 32.5445 6.4871C32.9114 6.34806 33.228 6.10175 33.4529 5.78025C33.6779 5.45874 33.8008 5.07695 33.8056 4.6846V4.37507H36.1944V4.6846C36.1992 5.07695 36.3221 5.45874 36.5471 5.78025C36.772 6.10175 37.0885 6.34806 37.4555 6.4871C37.954 6.68724 38.4255 6.94924 38.8587 7.26694C39.1692 7.49752 39.5391 7.63472 39.9248 7.66242C40.3105 7.69013 40.6962 7.60719 41.0364 7.42335L41.3908 7.22757L42.5469 9.14273L42.2712 9.29476C41.9316 9.48003 41.6559 9.76359 41.4803 10.1083C41.3046 10.4529 41.2372 10.8427 41.2869 11.2263C41.3642 11.7606 41.3642 12.3032 41.2869 12.8374C41.2373 13.2209 41.3047 13.6104 41.4804 13.9549C41.6561 14.2994 41.9317 14.5828 42.2712 14.7679L42.5458 14.9199L41.3897 16.8351L41.0353 16.6393C40.6951 16.4561 40.3097 16.3735 39.9243 16.4012C39.5389 16.4289 39.1693 16.5657 38.8587 16.7957C38.425 17.1132 37.9532 17.3752 37.4544 17.5755C37.0875 17.7146 36.7709 17.9609 36.546 18.2824C36.321 18.6039 36.1981 18.9857 36.1933 19.378V19.6876H33.8056V19.378C33.8008 18.9857 33.6779 18.6039 33.4529 18.2824C33.228 17.9609 32.9114 17.7146 32.5445 17.5755C32.0459 17.3754 31.5745 17.1134 31.1413 16.7957C30.8304 16.5659 30.4607 16.4291 30.0751 16.4014C29.6896 16.3737 29.3041 16.4562 28.9636 16.6393L28.6092 16.8351L27.4531 14.9199L27.7287 14.7679C28.0684 14.5826 28.3441 14.2991 28.5197 13.9544C28.6954 13.6097 28.7628 13.22 28.7131 12.8363C28.6753 12.5697 28.6563 12.3007 28.6562 12.0313Z" fill="#00B7DF"/>
<path d="M35 16.4063C35.8653 16.4063 36.7112 16.1497 37.4306 15.669C38.1501 15.1882 38.7108 14.505 39.042 13.7055C39.3731 12.9061 39.4598 12.0264 39.2909 11.1778C39.1221 10.3291 38.7055 9.54955 38.0936 8.93769C37.4817 8.32584 36.7022 7.90916 35.8535 7.74035C35.0049 7.57154 34.1252 7.65818 33.3258 7.98931C32.5263 8.32045 31.8431 8.8812 31.3623 9.60067C30.8816 10.3201 30.625 11.166 30.625 12.0313C30.625 13.1916 31.0859 14.3044 31.9064 15.1249C32.7269 15.9453 33.8397 16.4063 35 16.4063ZM35 9.84378C35.4327 9.84378 35.8556 9.97208 36.2153 10.2124C36.5751 10.4528 36.8554 10.7945 37.021 11.1942C37.1866 11.5939 37.2299 12.0337 37.1455 12.458C37.0611 12.8824 36.8527 13.2722 36.5468 13.5781C36.2409 13.884 35.8511 14.0923 35.4268 14.1768C35.0024 14.2612 34.5626 14.2178 34.1629 14.0523C33.7632 13.8867 33.4215 13.6063 33.1812 13.2466C32.9408 12.8869 32.8125 12.4639 32.8125 12.0313C32.8125 11.4511 33.043 10.8947 33.4532 10.4845C33.8634 10.0743 34.4198 9.84378 35 9.84378ZM46.8125 7.65628L46.9886 9.84378C53.8234 9.28816 59.2069 11.1147 62.1392 14.9953C66.7034 21.035 64.6199 31.196 56.8313 40.8822L58.5364 42.2516C66.9736 31.7593 69.0736 20.5428 63.8849 13.6763C60.4844 9.17222 54.4228 7.03503 46.8125 7.65628ZM15.062 61.8953L15.563 59.7658C12.5188 59.1679 9.78778 57.5038 7.86079 55.0725C6.82235 53.5876 6.09285 51.9091 5.71557 50.1368C5.33829 48.3644 5.32094 46.5344 5.66454 44.7552C6.88079 36.3464 13.6347 26.6875 23.2969 19.5541C23.7592 19.2121 24.2244 18.8789 24.6925 18.5544L23.4434 16.7574C22.9589 17.0953 22.4755 17.4399 21.9964 17.7953C11.7294 25.375 4.81251 35.3402 3.50001 44.4424C3.11131 46.5077 3.14254 48.6301 3.59184 50.6831C4.04115 52.736 4.89932 54.6775 6.11516 56.3916C8.34643 59.2336 11.5192 61.1854 15.062 61.8953Z" fill="#00B7DF"/>
</svg>
