<svg width="60" height="60" viewBox="0 0 60 60" fill="none" xmlns="http://www.w3.org/2000/svg">
<path d="M9.37497 58.1247H20.625C20.8736 58.1247 21.1121 58.0259 21.2879 57.8501C21.4637 57.6743 21.5625 57.4358 21.5625 57.1872V51.2903L27.9562 53.6528C28.0617 53.6897 28.1726 53.7087 28.2843 53.7091C28.4759 53.7097 28.663 53.6516 28.8206 53.5427C28.9782 53.4337 29.0986 53.2791 29.1656 53.0997L30 50.8403L30.8343 53.0997C30.9014 53.2791 31.0218 53.4337 31.1793 53.5427C31.3369 53.6516 31.524 53.7097 31.7156 53.7091C31.8273 53.7087 31.9382 53.6897 32.0437 53.6528L38.4375 51.2903V57.1872C38.4375 57.4358 38.5362 57.6743 38.7121 57.8501C38.8879 58.0259 39.1263 58.1247 39.375 58.1247H50.625C50.8736 58.1247 51.1121 58.0259 51.2879 57.8501C51.4637 57.6743 51.5625 57.4358 51.5625 57.1872V44.8778C51.5954 43.8261 51.2532 42.797 50.5972 41.9743C49.9411 41.1516 49.0139 40.5891 47.9812 40.3872C49.017 39.7398 49.8139 38.7729 50.2515 37.6326C50.6891 36.4923 50.7437 35.2405 50.407 34.0665C50.0703 32.8924 49.3605 31.8598 48.3851 31.1248C47.4096 30.3897 46.2214 29.9922 45 29.9922C43.7786 29.9922 42.5903 30.3897 41.6149 31.1248C40.6394 31.8598 39.9297 32.8924 39.593 34.0665C39.2562 35.2405 39.3108 36.4923 39.7484 37.6326C40.1861 38.7729 40.983 39.7398 42.0187 40.3872C40.9861 40.5891 40.0588 41.1516 39.4028 41.9743C38.7467 42.797 38.4046 43.8261 38.4375 44.8778V45.2903L30.0843 48.3747L30 48.4309L29.9062 48.3747L21.5625 45.2903V44.8778C21.5954 43.8261 21.2532 42.797 20.5972 41.9743C19.9411 41.1516 19.0139 40.5891 17.9812 40.3872C19.017 39.7398 19.8139 38.7729 20.2515 37.6326C20.6891 36.4923 20.7437 35.2405 20.407 34.0665C20.0703 32.8924 19.3606 31.8598 18.3851 31.1248C17.4096 30.3897 16.2214 29.9922 15 29.9922C13.7786 29.9922 12.5903 30.3897 11.6149 31.1248C10.6394 31.8598 9.92967 32.8924 9.59295 34.0665C9.25623 35.2405 9.31081 36.4923 9.74844 37.6326C10.1861 38.7729 10.983 39.7398 12.0187 40.3872C10.9861 40.5891 10.0588 41.1516 9.40278 41.9743C8.74672 42.797 8.40457 43.8261 8.43747 44.8778V57.1872C8.43747 57.4358 8.53625 57.6743 8.71206 57.8501C8.88788 58.0259 9.12633 58.1247 9.37497 58.1247ZM41.25 35.6247C41.25 34.883 41.4699 34.158 41.882 33.5413C42.294 32.9246 42.8797 32.444 43.5649 32.1601C44.2501 31.8763 45.0041 31.802 45.7316 31.9467C46.459 32.0914 47.1272 32.4486 47.6516 32.973C48.1761 33.4975 48.5332 34.1657 48.6779 34.8931C48.8226 35.6205 48.7484 36.3745 48.4645 37.0597C48.1807 37.745 47.7 38.3306 47.0834 38.7427C46.4667 39.1547 45.7417 39.3747 45 39.3747C44.0054 39.3747 43.0516 38.9796 42.3483 38.2763C41.6451 37.5731 41.25 36.6192 41.25 35.6247ZM40.3125 44.8778C40.2923 44.5403 40.3396 44.2021 40.4518 43.8831C40.5639 43.5641 40.7387 43.2707 40.9657 43.0201C41.1927 42.7696 41.4675 42.5668 41.7738 42.4238C42.0802 42.2807 42.4121 42.2003 42.75 42.1872H47.25C47.5879 42.2003 47.9197 42.2807 48.2261 42.4238C48.5325 42.5668 48.8073 42.7696 49.0343 43.0201C49.2613 43.2707 49.436 43.5641 49.5482 43.8831C49.6603 44.2021 49.7077 44.5403 49.6875 44.8778V56.2497H40.3125V44.8778ZM38.4375 47.2872V49.284L32.2687 51.5622L31.6218 49.7997L38.4375 47.2872ZM11.25 35.6247C11.25 34.883 11.4699 34.158 11.882 33.5413C12.294 32.9246 12.8797 32.444 13.5649 32.1601C14.2501 31.8763 15.0041 31.802 15.7316 31.9467C16.459 32.0914 17.1272 32.4486 17.6516 32.973C18.1761 33.4975 18.5332 34.1657 18.6779 34.8931C18.8226 35.6205 18.7484 36.3745 18.4645 37.0597C18.1807 37.745 17.7 38.3306 17.0834 38.7427C16.4667 39.1547 15.7417 39.3747 15 39.3747C14.0054 39.3747 13.0516 38.9796 12.3483 38.2763C11.6451 37.5731 11.25 36.6192 11.25 35.6247ZM10.3125 44.8778C10.2923 44.5403 10.3396 44.2021 10.4518 43.8831C10.5639 43.5641 10.7387 43.2707 10.9657 43.0201C11.1927 42.7696 11.4675 42.5668 11.7738 42.4238C12.0802 42.2807 12.4121 42.2003 12.75 42.1872H17.25C17.8849 42.2033 18.49 42.4602 18.9426 42.9058C19.3952 43.3515 19.6615 43.9525 19.6875 44.5872L16.725 43.4997L16.0687 45.2528L28.3781 49.809L27.7312 51.5622L15.4218 47.0153L14.7656 48.7497L19.6875 50.6247V56.2497H10.3125V44.8778Z" fill="#00B7DF"/>
<path d="M26.6719 31.4813C27.0186 31.9599 27.317 32.4718 27.5625 33.0094C28.2656 34.4156 28.8844 35.625 30 35.625C31.1156 35.625 31.7344 34.4156 32.4375 33.0094C32.683 32.4718 32.9814 31.9599 33.3281 31.4813C41.7656 30.15 47.8125 23.9813 47.8125 16.8094C47.8125 8.56875 39.825 1.875 30 1.875C20.175 1.875 12.1875 8.56875 12.1875 16.8094C12.1875 24 18.2719 30.15 26.6719 31.4813ZM30 3.75C38.7844 3.75 45.9375 9.60938 45.9375 16.8094C45.9375 23.1 40.4625 28.4906 32.925 29.6438C31.9875 29.7844 31.4156 30.8906 30.7687 32.1656C30.539 32.6423 30.2823 33.1056 30 33.5531C29.7177 33.1056 29.461 32.6423 29.2313 32.1656C28.5844 30.8906 28.0312 29.7844 27.075 29.6438C19.575 28.4906 14.0625 23.0813 14.0625 16.8094C14.0625 9.60938 21.2156 3.75 30 3.75Z" fill="#00B7DF"/>
<path d="M22.5 24.375H37.5C37.9973 24.375 38.4742 24.1775 38.8258 23.8258C39.1775 23.4742 39.375 22.9973 39.375 22.5V13.125C39.375 12.6277 39.1775 12.1508 38.8258 11.7992C38.4742 11.4475 37.9973 11.25 37.5 11.25H34.6875V9.375C34.6875 8.87772 34.49 8.40081 34.1383 8.04918C33.7867 7.69754 33.3098 7.5 32.8125 7.5H27.1875C26.6902 7.5 26.2133 7.69754 25.8617 8.04918C25.51 8.40081 25.3125 8.87772 25.3125 9.375V11.25H22.5C22.0027 11.25 21.5258 11.4475 21.1742 11.7992C20.8225 12.1508 20.625 12.6277 20.625 13.125V22.5C20.625 22.9973 20.8225 23.4742 21.1742 23.8258C21.5258 24.1775 22.0027 24.375 22.5 24.375ZM27.1875 9.375H32.8125V11.25H27.1875V9.375ZM22.5 13.125H37.5V14.6156L35.2406 16.875H30.9375V15.9375H29.0625V16.875H24.7594L22.5 14.6156V13.125ZM22.5 17.2594L23.7094 18.4781C23.797 18.565 23.9009 18.6338 24.0151 18.6804C24.1293 18.7271 24.2516 18.7507 24.375 18.75H29.0625V19.6875H30.9375V18.75H35.625C35.7484 18.7507 35.8707 18.7271 35.9849 18.6804C36.0991 18.6338 36.203 18.565 36.2906 18.4781L37.5 17.2594V22.5H22.5V17.2594Z" fill="#00B7DF"/>
</svg>
