<svg width="60" height="60" viewBox="0 0 60 60" fill="none" xmlns="http://www.w3.org/2000/svg">
<path fill-rule="evenodd" clip-rule="evenodd" d="M3.06349 22.457C2.49596 21.881 2.14313 21.1762 2.14313 20.311V16.63C2.14313 15.6854 2.91407 14.9164 3.85866 14.9164H8.42949V14.2427C8.42949 12.836 9.58066 11.6847 10.9874 11.6847H15.8087C17.2154 11.6847 18.3667 12.836 18.3667 14.2427V14.9164H22.9374C23.882 14.9164 24.6529 15.6854 24.6529 16.63V20.311C24.6529 21.1762 24.3001 21.881 23.7327 22.457V28.829C23.7327 30.1744 22.6303 31.28 21.2817 31.28H5.51443C4.16572 31.28 3.06349 30.1744 3.06349 28.829V22.457ZM7.07137 16.7988H4.02549V20.311C4.02549 20.7418 4.28125 21.0521 4.60172 21.3151L4.60431 21.3173C4.72031 21.4133 4.84607 21.5009 4.9776 21.5844C6.08796 22.2871 8.33749 22.6808 10.8534 22.8424C11.3184 21.9098 12.2814 21.2669 13.3981 21.2669C14.5141 21.2669 15.4765 21.9091 15.942 22.8409C18.4621 22.6776 20.7135 22.2829 21.8187 21.5843C21.9501 21.5008 22.0758 21.4131 22.1918 21.3173L22.1943 21.3151C22.5148 21.0521 22.7705 20.7418 22.7705 20.311V16.7988H19.7247V18.3733C19.7247 19.4242 18.8655 20.2834 17.8145 20.2834H8.98149C7.93055 20.2834 7.07137 19.4242 7.07137 18.3733V16.7988ZM10.62 24.7118C8.37643 24.553 6.33125 24.1878 4.94584 23.6508V28.829C4.94584 29.1411 5.20149 29.3976 5.51443 29.3976H21.2817C21.5945 29.3976 21.8503 29.1411 21.8503 28.829V23.6496C20.4674 24.1842 18.4217 24.55 16.1765 24.7102C15.901 25.9917 14.7625 26.9509 13.3981 26.9509C12.0342 26.9509 10.8961 25.9925 10.62 24.7118ZM16.4843 14.9164V14.2427C16.4843 13.8711 16.1802 13.567 15.8087 13.567H10.9874C10.6158 13.567 10.3118 13.8711 10.3118 14.2427V14.9164H16.4843ZM17.8423 16.7988H8.95372V18.3733C8.95372 18.3885 8.96619 18.401 8.98149 18.401H17.8145C17.8298 18.401 17.8423 18.3885 17.8423 18.3733V16.7988ZM12.4383 24.1089C12.4382 24.2349 12.463 24.3598 12.5112 24.4762C12.5595 24.5927 12.6302 24.6985 12.7193 24.7877C12.8084 24.8768 12.9143 24.9475 13.0307 24.9957C13.1472 25.0439 13.272 25.0686 13.3981 25.0685C13.5241 25.0686 13.6489 25.0438 13.7654 24.9956C13.8818 24.9474 13.9877 24.8767 14.0768 24.7876C14.1659 24.6985 14.2366 24.5927 14.2848 24.4762C14.333 24.3598 14.3578 24.2349 14.3577 24.1089C14.3577 23.5804 13.9295 23.1493 13.3981 23.1493C12.8667 23.1493 12.4383 23.5804 12.4383 24.1089ZM55.52 54.0651H58.2353C58.4849 54.0651 58.7243 54.1643 58.9008 54.3408C59.0773 54.5173 59.1764 54.7567 59.1764 55.0063V57.8334C59.1764 58.083 59.0773 58.3224 58.9008 58.4989C58.7243 58.6754 58.4849 58.7745 58.2353 58.7745H1.76466C1.51505 58.7745 1.27566 58.6754 1.09915 58.4989C0.922646 58.3224 0.823486 58.083 0.823486 57.8334V55.0063C0.823486 54.7567 0.922646 54.5173 1.09915 54.3408C1.27566 54.1643 1.51505 54.0651 1.76466 54.0651H4.47996V41.4389C4.47996 41.1893 4.57912 40.9499 4.75562 40.7734C4.93213 40.5969 5.17152 40.4977 5.42113 40.4977H12.902C13.1516 40.4977 13.391 40.5969 13.5675 40.7734C13.744 40.9499 13.8431 41.1893 13.8431 41.4389V54.0651H18.3734V33.9162C18.3734 33.6666 18.4725 33.4272 18.649 33.2507C18.8255 33.0742 19.0649 32.975 19.3145 32.975H26.7952C27.0449 32.975 27.2843 33.0742 27.4608 33.2507C27.6373 33.4272 27.7364 33.6666 27.7364 33.9162V54.0651H32.2635V26.0643C32.2635 25.8147 32.3626 25.5753 32.5392 25.3988C32.7157 25.2223 32.955 25.1231 33.2047 25.1231H40.6887C40.9383 25.1231 41.1777 25.2223 41.3542 25.3988C41.5307 25.5753 41.6298 25.8147 41.6298 26.0643V54.0651H46.1568V18.9998C46.1568 18.7502 46.2559 18.5108 46.4324 18.3343C46.609 18.1578 46.8483 18.0587 47.098 18.0587H54.5788C54.8284 18.0587 55.0678 18.1578 55.2443 18.3343C55.4208 18.5108 55.52 18.7502 55.52 18.9998V54.0651ZM6.36231 54.0651H11.9608V42.3801H6.36231V54.0651ZM20.2557 54.0651H25.8541V34.8574H20.2557V54.0651ZM34.1458 54.0651H39.7475V27.0055H34.1458V54.0651ZM48.0391 54.0651H53.6376V19.941H48.0391V54.0651ZM2.70584 56.8922H57.2941V55.9475H2.70584V56.8922ZM41.1908 18.041C36.5623 21.8763 31.4934 24.297 26.7 25.8583C26.4626 25.9355 26.2043 25.9152 25.9819 25.8021C25.7594 25.6889 25.591 25.4921 25.5136 25.2548C25.3527 24.7609 25.6231 24.2294 26.117 24.0684C30.6801 22.5822 35.507 20.2876 39.9177 16.6511L38.3232 16.7334C38.074 16.7461 37.8299 16.6593 37.6445 16.4922C37.4592 16.325 37.3478 16.0911 37.3348 15.8418C37.3221 15.5926 37.4088 15.3485 37.576 15.1631C37.7432 14.9778 37.9771 14.8664 38.2263 14.8535L42.4782 14.6342C42.6179 14.6271 42.7574 14.6511 42.8867 14.7047C43.0159 14.7582 43.1316 14.8399 43.2253 14.9438C43.319 15.0476 43.3884 15.1711 43.4284 15.3051C43.4684 15.4391 43.4781 15.5804 43.4567 15.7187L42.8434 19.6648C42.8049 19.9114 42.6702 20.1326 42.4687 20.2799C42.2672 20.4272 42.0154 20.4884 41.7688 20.4502C41.5222 20.4118 41.3009 20.277 41.1536 20.0755C41.0064 19.8741 40.9451 19.6223 40.9834 19.3757L41.1908 18.041ZM47.8663 5.91584L49.3365 2.04819C49.7514 0.94878 51.3155 0.94878 51.7303 2.04819L53.2004 5.91584L57.3305 6.1189C58.5156 6.17219 58.9908 7.66478 58.0753 8.39454L54.8476 10.99L55.9321 14.9789C56.2474 16.1097 54.9874 17.0318 54.0024 16.3929L53.9991 16.3908L50.5336 14.1228L47.0715 16.3907L47.0678 16.3929C46.0863 17.0296 44.8282 16.1117 45.1333 14.9843L45.1336 14.9833L46.2193 10.99L42.9948 8.39702C42.076 7.66478 42.5513 6.17219 43.7323 6.11902L47.8663 5.91584ZM45.4268 7.92784L47.7081 9.76231C48.1169 10.0838 48.2829 10.5863 48.1498 11.0915L48.148 11.0989L47.3781 13.9307L49.8269 12.3267C50.2662 12.0349 50.7978 12.0343 51.2376 12.325L53.6882 13.9289L52.9189 11.0989L52.9169 11.0915C52.7838 10.586 52.9501 10.0834 53.3582 9.76266L55.64 7.92784L52.7084 7.78372L52.7064 7.7836C52.1874 7.75702 51.7615 7.4509 51.5756 6.95984L50.5334 4.21807L49.4917 6.95854C49.3054 7.4509 48.8795 7.75702 48.3604 7.7836L48.3584 7.78372L45.4268 7.92784Z" fill="#00B7DF"/>
</svg>
