<svg width="70" height="70" viewBox="0 0 70 70" fill="none" xmlns="http://www.w3.org/2000/svg">
<path d="M11.6772 64.5058H32.7726C33.2817 64.5058 33.7059 64.0922 33.7059 63.5725C33.7059 63.0528 33.2923 62.6391 32.7726 62.6391H11.6772C9.81049 62.6391 8.29382 61.1225 8.29382 59.2558V6.43764C8.29382 4.57097 9.81049 3.0543 11.6772 3.0543H49.9756C51.8423 3.0543 53.359 4.57097 53.359 6.43764V34.9255C53.359 35.4346 53.7726 35.8588 54.2923 35.8588C54.812 35.8588 55.2256 35.4452 55.2256 34.9255V6.43764C55.2256 3.54218 52.8711 1.19824 49.9862 1.19824H11.6772C9.07867 1.19824 6.92564 3.10733 6.52261 5.58915C4.03018 5.99218 2.12109 8.14521 2.12109 10.7437V63.5725C2.1239 64.9612 2.6768 66.2922 3.65877 67.2742C4.64074 68.2562 5.97178 68.8091 7.36049 68.8119H32.7726C33.2817 68.8119 33.7059 68.3982 33.7059 67.8785C33.7059 67.3588 33.2923 66.9452 32.7726 66.9452H7.37109C5.50443 66.9452 3.98776 65.4285 3.98776 63.5619V10.7437C3.98776 9.20582 5.02715 7.90127 6.43776 7.48764V59.2558C6.43637 59.9448 6.57086 60.6272 6.83354 61.2641C7.09622 61.901 7.48193 62.4798 7.96859 62.9675C8.45525 63.4551 9.03331 63.842 9.66967 64.106C10.306 64.3699 10.9882 64.5058 11.6772 64.5058Z" fill="#00B7DF"/>
<path d="M31.4681 42.5298H19.9499C19.4408 42.5298 19.0166 42.9434 19.0166 43.4631C19.0166 43.9828 19.4302 44.3964 19.9499 44.3964H31.4681C31.9772 44.3964 32.4014 43.9828 32.4014 43.4631C32.4014 42.9434 31.9772 42.5298 31.4681 42.5298ZM19.9499 48.5328H27.3953C27.9044 48.5328 28.3287 48.1192 28.3287 47.5995C28.3287 47.0798 27.915 46.6661 27.3953 46.6661H19.9499C19.4408 46.6661 19.0166 47.0798 19.0166 47.5995C19.0166 48.1192 19.4302 48.5328 19.9499 48.5328ZM47.0484 35.5722C47.0484 35.0631 46.6347 34.6389 46.115 34.6389H44.9908V24.6479C44.9908 24.1389 44.5772 23.7146 44.0575 23.7146H39.6878V19.6843C39.6878 19.1752 39.2741 18.751 38.7544 18.751H33.462C32.9529 18.751 32.5287 19.1646 32.5287 19.6843V23.7146H28.159C27.6499 23.7146 27.2256 24.1282 27.2256 24.6479V28.4237H23.7893V22.6328C23.7893 22.1237 23.3756 21.6995 22.856 21.6995H17.5635C17.0544 21.6995 16.6302 22.1131 16.6302 22.6328V34.6389H15.4953C14.9863 34.6389 14.562 35.0525 14.562 35.5722C14.562 36.0919 14.9756 36.5055 15.4953 36.5055H46.0832C46.6347 36.5055 47.0484 36.0919 47.0484 35.5722ZM43.1347 25.5813V34.6389H39.6984V25.5813H43.1347ZM34.3953 20.6282H37.8317V34.6495H34.3953V24.6586V20.6282ZM29.1029 25.5813H32.5393V34.6389H29.1029V29.357V25.5813ZM27.2469 30.2904V34.6495H23.8105V30.2904H27.2469ZM18.5181 23.5661H21.9544V34.6389H18.5181V23.5661ZM61.3984 51.354C61.9075 51.354 62.3317 50.9404 62.3317 50.4207C62.3317 49.901 61.9181 49.4873 61.3984 49.4873H40.7696C40.2605 49.4873 39.8363 49.901 39.8363 50.4207C39.8363 50.9404 40.2499 51.354 40.7696 51.354H61.3984Z" fill="#00B7DF"/>
<path d="M64.4531 44.0996H59.1501V41.6602C59.1501 39.7723 57.6122 38.2344 55.7243 38.2344H46.4334C44.5455 38.2344 43.0076 39.7723 43.0076 41.6602V44.0996H37.7046C35.8167 44.0996 34.2789 45.6374 34.2789 47.5253V53.9844C34.2789 54.3662 34.5122 54.7056 34.8622 54.8435L36.0819 55.3314V65.3859C36.0819 67.2738 37.6198 68.8117 39.5076 68.8117H62.6501C64.5379 68.8117 66.0758 67.2738 66.0758 65.3859V55.3314L67.2955 54.8435C67.4677 54.7754 67.6155 54.657 67.7195 54.5038C67.8235 54.3506 67.8791 54.1696 67.8789 53.9844V47.5253C67.8789 45.6374 66.341 44.0996 64.4531 44.0996ZM44.8637 41.6602C44.8637 40.8011 45.5637 40.0905 46.4334 40.0905H55.7243C56.5834 40.0905 57.294 40.7905 57.294 41.6602V44.0996H44.8637V41.6602ZM36.1455 47.5253C36.1455 46.6662 36.8455 45.9556 37.7152 45.9556H64.4637C65.3228 45.9556 66.0334 46.6556 66.0334 47.5253V53.3586L54.5152 57.9405V57.6753C54.5152 57.1662 54.1016 56.742 53.5819 56.742H48.597C48.0879 56.742 47.6637 57.1556 47.6637 57.6753V57.9405L36.1455 53.348V47.5253ZM49.5092 59.2768V58.5874H52.6379V61.7162H49.5092V59.2768ZM64.2198 65.3859C64.2198 66.245 63.5198 66.9556 62.6501 66.9556H39.5076C38.6486 66.9556 37.9379 66.2556 37.9379 65.3859V56.0632L47.6531 59.9238V62.6495C47.6531 63.1586 48.0667 63.5829 48.5864 63.5829H53.5713C54.0804 63.5829 54.5046 63.1692 54.5046 62.6495V59.9238L64.2198 56.0632V65.3859ZM27.5016 11.6874C27.3266 11.5141 27.0903 11.4169 26.844 11.4169C26.5977 11.4169 26.3614 11.5141 26.1864 11.6874L19.5789 18.295C19.4498 18.4257 19.3621 18.5915 19.3268 18.7718C19.2914 18.9521 19.31 19.1387 19.3802 19.3085C19.4503 19.4782 19.569 19.6235 19.7213 19.7262C19.8736 19.8289 20.0527 19.8845 20.2364 19.8859C20.4804 19.8859 20.7137 19.8011 20.894 19.6102L26.844 13.6602L30.6834 17.4995C30.8608 17.6682 31.0962 17.7622 31.341 17.7622C31.5857 17.7622 31.8211 17.6682 31.9985 17.4995L39.6561 9.84197V11.5496C39.6561 12.0586 40.0698 12.4829 40.5895 12.4829C41.1092 12.4829 41.5228 12.0692 41.5228 11.5496V7.59349C41.5228 7.0844 41.1092 6.66016 40.5895 6.66016H36.644C36.1349 6.66016 35.7107 7.07379 35.7107 7.59349C35.7107 8.11319 36.1243 8.52682 36.644 8.52682H38.3516L31.3516 15.5268L27.5016 11.6874ZM16.747 43.4526C16.747 42.9435 16.3334 42.5192 15.8137 42.5192H11.6667C11.1576 42.5192 10.7334 42.9329 10.7334 43.4526V47.5996C10.7334 48.1086 11.147 48.5329 11.6667 48.5329H15.8137C16.3228 48.5329 16.747 48.1192 16.747 47.5996V43.4526ZM14.891 46.6768H12.6001V44.3859H14.891V46.6768ZM32.391 51.948C32.391 51.4389 31.9773 51.0147 31.4576 51.0147H19.9501C19.441 51.0147 19.0167 51.4283 19.0167 51.948C19.0167 52.4677 19.4304 52.8814 19.9501 52.8814H31.4682C31.9773 52.8708 32.391 52.4571 32.391 51.948ZM19.9501 55.1723C19.441 55.1723 19.0167 55.5859 19.0167 56.1056C19.0167 56.6253 19.4304 57.0389 19.9501 57.0389H27.3955C27.9046 57.0389 28.3289 56.6253 28.3289 56.1056C28.3289 55.5859 27.9152 55.1723 27.3955 55.1723H19.9501ZM15.8137 51.0147H11.6667C11.1576 51.0147 10.7334 51.4283 10.7334 51.948V56.095C10.7334 56.6041 11.147 57.0283 11.6667 57.0283H15.8137C16.3228 57.0283 16.747 56.6147 16.747 56.095V51.948C16.747 51.4389 16.3334 51.0147 15.8137 51.0147ZM14.891 55.1723H12.6001V52.8814H14.891V55.1723Z" fill="#00B7DF"/>
</svg>
