<svg width="70" height="70" viewBox="0 0 70 70" fill="none" xmlns="http://www.w3.org/2000/svg">
<g clip-path="url(#clip0_3409_1339)">
<path d="M38.1815 67.7393C38.7548 67.1661 39.1466 66.4599 39.3301 65.6907C39.9646 66.035 40.6751 66.2152 41.397 66.2149C42.5053 66.2149 43.6135 65.793 44.4572 64.9493C45.143 64.2635 45.5691 63.3879 45.6889 62.4411C45.6642 62.6396 47.0077 62.6046 47.1421 62.6032C48.0961 62.5932 49.1826 62.2963 49.8427 61.5684C50.2105 61.1629 50.4479 60.6613 50.6601 60.1621C50.7236 60.013 51.2594 58.5942 51.1289 58.5691C51.4001 58.6216 51.678 58.6488 51.9603 58.6488C53.1164 58.6488 54.2032 58.1986 55.0205 57.3811C56.7079 55.6937 56.7079 52.9481 55.0205 51.2608L54.6784 50.9187C55.8414 49.4215 56.3669 47.4896 56.0935 45.5949C56.0444 45.2494 56.0762 44.8972 56.1863 44.566C56.2964 44.2349 56.4819 43.9338 56.7281 43.6865L58.8355 41.579L60.1723 42.9159C60.5964 43.34 61.1603 43.5735 61.7599 43.5735C62.3596 43.5735 62.9234 43.34 63.3475 42.9159L69.0711 37.1924C69.9464 36.317 69.9464 34.8927 69.071 34.0172L53.9892 18.9359C53.5653 18.5118 53.0013 18.2783 52.4017 18.2783C51.802 18.2783 51.2382 18.5118 50.8141 18.9359L45.0906 24.6594C44.2153 25.5347 44.2152 26.9591 45.0906 27.8346L46.4275 29.1714L45.207 30.3917C44.9397 30.6604 44.6085 30.8567 44.2445 30.9621C43.8805 31.0676 43.4957 31.0787 43.1262 30.9945L39.6872 30.2203C37.5745 29.7446 35.4185 30.0431 33.5637 31.0137C32.0198 30.456 30.3666 30.3319 28.7451 30.6592L26.8593 31.0396C26.4964 31.1134 26.1208 31.0959 25.7663 30.9889C25.4117 30.8819 25.0892 30.6887 24.8277 30.4265L23.5727 29.1715L24.9096 27.8347C25.7848 26.9593 25.7848 25.5349 24.9094 24.6597L19.1862 18.9359C18.7623 18.5118 18.1983 18.2783 17.5987 18.2783C16.999 18.2783 16.4352 18.5118 16.0111 18.9359L0.929507 34.0174C0.0540967 34.8928 0.0540967 36.3173 0.929507 37.1925L6.65283 42.9159C6.86082 43.125 7.10823 43.2908 7.38074 43.4037C7.65325 43.5166 7.94544 43.5743 8.24041 43.5735C8.84019 43.5735 9.40402 43.34 9.82798 42.9159L11.1648 41.579L13.2723 43.6867C13.5186 43.9339 13.704 44.235 13.8141 44.5661C13.9243 44.8972 13.956 45.2494 13.9069 45.5949C13.7701 46.5414 13.7424 47.2879 13.9785 48.1469L11.7723 50.3529C10.1517 51.9735 10.1517 54.6102 11.7723 56.2306C12.3257 56.785 13.0253 57.1705 13.7895 57.3423C13.1467 58.8564 13.4406 60.677 14.6734 61.9096C15.4585 62.6947 16.502 63.127 17.6122 63.127C17.9834 63.127 18.3469 63.0776 18.6961 62.9838C18.8271 63.8609 19.2366 64.6726 19.8642 65.299C20.6744 66.1092 21.7388 66.5145 22.8031 66.5145C23.1315 66.5145 23.4598 66.4756 23.7808 66.3985C23.8997 67.3021 24.3139 68.141 24.9588 68.7848C25.769 69.595 26.8333 70.0003 27.8976 70.0003C28.9619 70.0003 30.0263 69.5952 30.8365 68.7848L31.9715 67.6498L32.0609 67.7392C32.8784 68.5566 33.9651 69.0069 35.1211 69.0069C36.2775 69.007 37.3642 68.5568 38.1815 67.7393ZM52.4017 20.5234L67.4832 35.605L61.7598 41.3283L46.6782 26.2468L52.4017 20.5234ZM39.1941 32.4104L42.633 33.1846C44.1437 33.5249 45.6994 33.0743 46.7945 31.979L48.0149 30.7587L57.2477 39.9913L55.1403 42.0987C54.1443 43.0944 53.6697 44.5213 53.871 45.9155C54.0436 47.1118 53.7481 48.3296 53.0729 49.3133L39.7403 35.9807C39.5453 35.7857 39.2853 35.6693 39.01 35.6537C38.7347 35.6381 38.4632 35.7243 38.2474 35.896L34.4575 38.9123C34.2705 39.0611 34.1359 39.2657 34.0732 39.4963C34.0105 39.7269 34.0231 39.9715 34.1091 40.1945L34.4107 40.9766C34.7339 41.811 34.7365 42.7356 34.4179 43.5717C34.0992 44.4078 33.4821 45.0962 32.6856 45.5039L32.4318 45.6344L29.3185 39.4923C29.1574 39.1758 29.1008 38.8163 29.1568 38.4656C29.2127 38.1149 29.3783 37.791 29.6298 37.5402L32.9518 34.2184C34.5945 32.5762 36.928 31.9003 39.1941 32.4104ZM8.24054 41.3283L2.51708 35.605L17.5985 20.5235L23.3228 26.246L8.24054 41.3283ZM13.36 51.9407L16.3575 48.9431C16.7185 48.5822 17.1984 48.3834 17.7087 48.3834C18.2191 48.3834 18.6991 48.5822 19.0599 48.9431C19.805 49.6882 19.805 50.9006 19.0599 51.6456L16.0624 54.6432C15.3171 55.3884 14.1048 55.3883 13.3598 54.6432C12.6149 53.8981 12.6149 52.6858 13.36 51.9407ZM16.2611 60.3222C16.0831 60.1452 15.942 59.9346 15.8459 59.7027C15.7499 59.4707 15.7007 59.2221 15.7014 58.971C15.7014 58.4605 15.9002 57.9806 16.2611 57.6197L21.4521 52.4288C21.6294 52.2512 21.8401 52.1104 22.072 52.0145C22.3039 51.9186 22.5525 51.8695 22.8034 51.87C23.2927 51.87 23.782 52.0562 24.1546 52.4288C24.8997 53.1739 24.8997 54.3863 24.1546 55.1313L18.9637 60.3222C18.6027 60.6831 18.1228 60.8819 17.6125 60.8819C17.1021 60.8819 16.6221 60.6831 16.2611 60.3222ZM21.4521 63.7116C21.0911 63.3507 20.8924 62.8708 20.8924 62.3604C20.8924 61.85 21.0911 61.37 21.4521 61.0092L24.4015 58.0598C24.5789 57.8822 24.7895 57.7415 25.0214 57.6456C25.2533 57.5497 25.5019 57.5005 25.7528 57.501C26.2422 57.501 26.7315 57.6872 27.104 58.0598C27.8492 58.8049 27.8492 60.0173 27.104 60.7623L26.3012 61.5651L24.1546 63.7117C23.9776 63.8897 23.767 64.0309 23.5351 64.1269C23.3031 64.223 23.0545 64.2721 22.8034 64.2715C22.5523 64.2721 22.3036 64.2229 22.0717 64.1269C21.8397 64.0308 21.6291 63.8896 21.4521 63.7116ZM30.5898 65.8567L29.2492 67.1974C28.5039 67.9426 27.2916 67.9425 26.5466 67.1974C25.8018 66.4525 25.8017 65.2408 26.546 64.4957L27.8883 63.1535C28.0655 62.9762 28.2761 62.8356 28.5078 62.7399C28.7395 62.6441 28.9879 62.595 29.2386 62.5954C29.7281 62.5954 30.2174 62.7816 30.59 63.1542C31.3349 63.8992 31.3349 65.1116 30.5898 65.8567ZM33.2132 65.7162C33.6434 64.2951 33.2986 62.6877 32.1774 61.5665C31.5336 60.9215 30.6946 60.5075 29.7911 60.3886C30.1183 59.0276 29.752 57.5323 28.6918 56.4721C28.1321 55.9116 27.4232 55.5238 26.6493 55.3551C27.2625 53.8519 26.9603 52.0595 25.7422 50.8413C24.6819 49.7811 23.1866 49.4149 21.8256 49.7421C21.7067 48.8385 21.2926 47.9996 20.6476 47.3557C19.8626 46.5706 18.819 46.1383 17.7089 46.1383C17.1329 46.1383 16.5752 46.2558 16.0618 46.4774C16.076 46.3092 16.099 46.1253 16.1292 45.916C16.3305 44.5219 15.856 43.0951 14.8602 42.0992L12.7527 39.9917L21.9854 30.7591L23.2404 32.014C23.7635 32.5384 24.4085 32.9249 25.1176 33.139C25.8267 33.353 26.5778 33.3879 27.3036 33.2405L29.1894 32.8601C29.8607 32.7252 30.5486 32.6938 31.2294 32.7668L28.0426 35.9535C27.4558 36.5385 27.0694 37.2945 26.939 38.1128C26.8085 38.9311 26.9406 39.7697 27.3164 40.5082L30.4297 46.6503C30.5628 46.9147 30.7472 47.15 30.9721 47.3424C31.1971 47.5348 31.4581 47.6805 31.7399 47.771C32.0212 47.8631 32.3181 47.8983 32.6132 47.8745C32.9083 47.8506 33.1957 47.7683 33.4586 47.6322L33.7123 47.5018C35.0023 46.8415 36.0017 45.7266 36.5177 44.3725C37.0336 43.0184 37.0295 41.5211 36.5061 40.1699L36.501 40.1566L38.8619 38.2775L53.4332 52.8489C54.2452 53.6609 54.2452 54.9821 53.4332 55.7941C52.7307 56.4965 51.6393 56.5806 50.8122 56.0492C50.1864 55.6472 48.0179 53.3353 47.4505 52.7714L44.2721 49.6123L44.0991 49.4405C43.6594 49.0034 42.9486 49.0056 42.5116 49.4454C42.0745 49.8852 42.0767 50.5959 42.5165 51.033L48.292 56.7733C48.486 56.9662 48.6399 57.1957 48.7446 57.4485C48.8493 57.7013 48.9028 57.9724 48.9021 58.246C48.9021 58.8403 48.5741 59.3883 48.2163 59.8401C47.5079 60.7344 46.0718 60.4436 45.35 59.7217L39.0531 53.3753C38.8423 53.1693 38.5589 53.0545 38.2642 53.0557C37.9695 53.0568 37.6871 53.1738 37.4779 53.3814C37.2686 53.5889 37.1494 53.8705 37.1459 54.1651C37.1425 54.4598 37.255 54.7441 37.4593 54.9565L42.7981 60.3375C42.8207 60.3649 42.8445 60.3915 42.87 60.4171C43.2634 60.8104 43.4801 61.3334 43.4801 61.8897C43.4801 62.446 43.2634 62.9689 42.87 63.3623C42.0581 64.1743 40.7368 64.1743 39.9248 63.3623L34.3496 57.787C34.1379 57.5821 33.8542 57.4686 33.5596 57.471C33.2649 57.4734 32.9831 57.5914 32.7748 57.7998C32.5664 58.0081 32.4483 58.29 32.4459 58.5846C32.4436 58.8792 32.5571 59.1629 32.762 59.3746L36.5945 63.2071C37.4065 64.0191 37.4065 65.3403 36.5945 66.1523C36.2012 66.5456 35.6782 66.7623 35.1219 66.7623C34.5656 66.7623 34.0427 66.5456 33.6493 66.1523L33.2132 65.7162Z" fill="#00B7DF"/>
<path d="M35.7299 17.9614V1.1226C35.7299 0.502578 35.2273 0 34.6073 0C33.9873 0 33.4847 0.502578 33.4847 1.1226V17.9614C33.4847 18.5814 33.9873 19.084 34.6073 19.084C35.2273 19.084 35.7299 18.5814 35.7299 17.9614ZM28.4812 21.2811C28.7004 21.5003 28.9877 21.6099 29.275 21.6099C29.5622 21.6099 29.8496 21.5003 30.0688 21.2811C30.173 21.1769 30.2557 21.0531 30.3122 20.9169C30.3686 20.7807 30.3976 20.6347 30.3976 20.4873C30.3976 20.3399 30.3686 20.1939 30.3122 20.0577C30.2557 19.9215 30.173 19.7978 30.0688 19.6935L19.4042 9.02891C19.1925 8.82398 18.9087 8.71046 18.6141 8.71285C18.3195 8.71523 18.0377 8.83333 17.8293 9.04165C17.621 9.24998 17.5029 9.53185 17.5005 9.82646C17.4981 10.1211 17.6117 10.4048 17.8166 10.6165L28.4812 21.2811ZM40.7334 21.2811L51.398 10.6165C51.6029 10.4048 51.7164 10.1211 51.714 9.82646C51.7117 9.53185 51.5936 9.24998 51.3852 9.04165C51.1769 8.83333 50.895 8.71523 50.6004 8.71285C50.3058 8.71046 50.0221 8.82398 49.8104 9.02891L39.1458 19.6935C39.0415 19.7978 38.9588 19.9215 38.9024 20.0577C38.846 20.1939 38.817 20.3399 38.817 20.4873C38.817 20.6347 38.846 20.7807 38.9024 20.9169C38.9588 21.0531 39.0415 21.1769 39.1458 21.2811C39.2499 21.3855 39.3737 21.4683 39.5099 21.5247C39.6461 21.5811 39.7921 21.6101 39.9396 21.6099C40.087 21.6101 40.2331 21.5811 40.3693 21.5247C40.5055 21.4683 40.6292 21.3855 40.7334 21.2811Z" fill="#00B7DF"/>
</g>
<defs>
<clipPath id="clip0_3409_1339">
<rect width="70" height="70" fill="white"/>
</clipPath>
</defs>
</svg>
