<svg width="60" height="60" viewBox="0 0 60 60" fill="none" xmlns="http://www.w3.org/2000/svg">
<g clip-path="url(#clip0_3308_2750)">
<path d="M17.2879 25.6299H55.8993C56.4375 25.6297 56.9705 25.7359 57.4674 25.9424C57.9644 26.1489 58.4157 26.4516 58.7953 26.8332V26.8402C59.1762 27.2188 59.4787 27.6689 59.6852 28.1646C59.8918 28.6604 59.9984 29.192 59.999 29.7291V55.8999C59.999 57.0249 59.5368 58.0533 58.7953 58.7949C58.4159 59.1767 57.9646 59.4796 57.4676 59.6862C56.9706 59.8928 56.4376 59.999 55.8993 59.9986H17.2879C16.7499 59.9983 16.2171 59.8918 15.7203 59.6853C15.2234 59.4787 14.7722 59.1761 14.3925 58.7949C14.0108 58.4156 13.708 57.9645 13.5014 57.4676C13.2948 56.9708 13.1886 56.438 13.1887 55.8999V29.7291C13.1887 28.6036 13.6504 27.5752 14.3925 26.8332C14.7724 26.4522 15.2236 26.1498 15.7204 25.9433C16.2173 25.7369 16.7499 25.6304 17.2879 25.6299ZM55.8993 27.5039H17.2879C16.9962 27.5047 16.7075 27.5631 16.4384 27.6758C16.1693 27.7885 15.9252 27.9533 15.72 28.1607C15.5125 28.3659 15.3476 28.6101 15.2348 28.8793C15.122 29.1484 15.0635 29.4373 15.0628 29.7291V55.8999C15.0628 56.5116 15.3164 57.0708 15.72 57.4744C15.9255 57.6808 16.1699 57.8445 16.439 57.9561C16.7081 58.0677 16.9966 58.125 17.2879 58.1246H55.8993C56.1916 58.125 56.4811 58.0678 56.7513 57.9562C57.0215 57.8446 57.267 57.6809 57.4739 57.4744C57.6805 57.2676 57.8443 57.0221 57.9561 56.7519C58.0678 56.4818 58.1252 56.1922 58.125 55.8999V29.7291C58.1253 29.4367 58.068 29.1472 57.9563 28.877C57.8445 28.6068 57.6806 28.3613 57.4739 28.1546V28.1611C57.0569 27.742 56.4905 27.5057 55.8993 27.5039Z" fill="#00B7DF"/>
<path d="M28.7663 17.8154H44.4282C45.3197 17.8154 46.1391 18.1796 46.725 18.7717C47.3105 19.3637 47.6818 20.1775 47.6818 21.0686V27.5036H41.8519V23.522H31.343V27.504H25.5127V21.0686C25.5127 20.6413 25.5969 20.2182 25.7604 19.8235C25.9239 19.4288 26.1636 19.0702 26.4657 18.7681C26.7678 18.466 27.1265 18.2264 27.5212 18.0629C27.916 17.8995 28.339 17.8154 28.7663 17.8154ZM44.4277 19.6895H28.7663C28.3885 19.6895 28.0439 19.8451 27.7899 20.0992C27.5326 20.3562 27.3878 20.7049 27.3872 21.0686V25.6295H29.4689V21.6479H43.726V25.63H45.8077V21.069C45.8077 20.6912 45.6516 20.3467 45.4046 20.0996H45.3975C45.2716 19.9698 45.1208 19.8666 44.9542 19.7962C44.7876 19.7257 44.6086 19.6894 44.4277 19.6895Z" fill="#00B7DF"/>
<path d="M10.3519 50.857C10.8661 50.857 11.2889 51.2728 11.2889 51.7936C11.2877 52.0417 11.1885 52.2793 11.0131 52.4546C10.8376 52.63 10.6 52.729 10.3519 52.7302H2.81109C2.04328 52.7302 1.34063 52.4114 0.826406 51.9042V51.8977C0.564831 51.6375 0.357184 51.3283 0.215371 50.9877C0.0735574 50.6471 0.000368236 50.2819 0 49.913L0 2.81062C0 2.04281 0.31875 1.34016 0.826406 0.826406C1.08653 0.56479 1.39576 0.357115 1.73634 0.215299C2.07693 0.0734828 2.44216 0.000316992 2.81109 0L29.1694 0C29.573 0 29.9503 0.0782812 30.3023 0.234375C30.6554 0.397262 30.9736 0.626956 31.2394 0.910781L38.3123 8.47828C38.3316 8.49797 38.3447 8.51719 38.3644 8.53687C38.5807 8.78043 38.7523 9.06017 38.8716 9.36328C38.992 9.68824 39.0538 10.032 39.0539 10.3786V14.9723C39.0538 15.2208 38.955 15.4591 38.7793 15.6348C38.6036 15.8105 38.3654 15.9093 38.1169 15.9094C37.9933 15.91 37.8709 15.8862 37.7566 15.8394C37.6422 15.7926 37.5383 15.7237 37.4506 15.6367C37.3629 15.5497 37.2933 15.4462 37.2457 15.3322C37.1982 15.2182 37.1735 15.0959 37.1733 14.9723V10.3786C37.1733 10.2483 37.1606 10.1316 37.1213 10.027C37.0824 9.94184 37.0344 9.86106 36.9783 9.78609C36.9652 9.77344 36.9516 9.76688 36.9389 9.75375L29.8725 2.18625C29.7792 2.08729 29.6691 2.0057 29.5472 1.94531C29.4274 1.89676 29.2991 1.87254 29.1698 1.87406H2.81109C2.68833 1.87393 2.56682 1.89866 2.45387 1.94676C2.34093 1.99485 2.23889 2.06532 2.15391 2.15391L2.14734 2.14734C1.97813 2.31609 1.87406 2.55703 1.87406 2.81062V49.913C1.87406 50.1731 1.97813 50.4075 2.14734 50.5767L2.15391 50.5833C2.32313 50.7464 2.55703 50.857 2.81109 50.857H10.3519Z" fill="#00B7DF"/>
<path d="M33.1974 42.7106L17.1193 39.6581C16.0327 39.4565 15.03 38.9817 14.3086 38.2593C13.6182 37.5698 13.1888 36.6656 13.1888 35.5786H15.0629C15.0629 36.1317 15.2846 36.5873 15.6357 36.9389C16.0847 37.3809 16.7419 37.687 17.4643 37.8234L33.5424 40.875L33.1974 42.7106ZM59.9986 35.5786C59.9986 36.6651 59.5693 37.5632 58.8793 38.2528V38.2593C58.1569 38.9817 57.1552 39.457 56.0752 39.6581L39.9966 42.7359L39.6455 40.9012L55.7236 37.8234C56.4525 37.6804 57.1097 37.3814 57.5583 36.9389C57.7397 36.7621 57.8834 36.5505 57.9807 36.3167C58.078 36.0829 58.1269 35.8318 58.1246 35.5786H59.9986ZM23.8796 8.37371C24.3999 8.37371 24.8166 8.79043 24.8166 9.31074C24.8165 9.55922 24.7177 9.79749 24.542 9.97319C24.3663 10.1489 24.1281 10.2476 23.8796 10.2478H10.8014C10.6759 10.2517 10.5508 10.2304 10.4337 10.1851C10.3165 10.1398 10.2097 10.0715 10.1195 9.98405C10.0292 9.89665 9.95752 9.79201 9.90853 9.67634C9.85955 9.56068 9.83431 9.43635 9.83431 9.31074C9.83431 9.18513 9.85955 9.0608 9.90853 8.94514C9.95752 8.82948 10.0292 8.72484 10.1195 8.63743C10.2097 8.55003 10.3165 8.48164 10.4337 8.43634C10.5508 8.39104 10.6759 8.36974 10.8014 8.37371H23.8796ZM6.33708 8.37371C6.85786 8.37371 7.28114 8.79043 7.28114 9.31074C7.27965 9.56002 7.17949 9.79856 7.00256 9.97416C6.82564 10.1498 6.58636 10.2481 6.33708 10.2478H5.63489C5.1202 10.2478 4.69739 9.82496 4.69739 9.31074C4.69751 9.06218 4.79634 8.82385 4.97214 8.64813C5.14794 8.47242 5.38633 8.37371 5.63489 8.37371H6.33708ZM17.7174 16.8782C18.2316 16.8782 18.6544 17.3006 18.6544 17.8153C18.6544 18.3356 18.2316 18.7518 17.7174 18.7518H10.801C10.5588 18.7425 10.3297 18.6396 10.1617 18.465C9.99364 18.2903 9.89978 18.0574 9.89978 17.815C9.89978 17.5727 9.99364 17.3397 10.1617 17.1651C10.3297 16.9904 10.5588 16.8876 10.801 16.8782H17.7174ZM6.33754 16.8782C6.85786 16.8782 7.28114 17.3006 7.28114 17.8153C7.28114 18.3356 6.85833 18.7518 6.33754 18.7518H5.63489C5.38641 18.7518 5.14809 18.6532 4.97231 18.4776C4.79652 18.302 4.69764 18.0638 4.69739 17.8153C4.69739 17.3011 5.1202 16.8782 5.63489 16.8782H6.33754ZM23.8796 12.629C24.3999 12.629 24.8166 13.0457 24.8166 13.5661C24.8165 13.8145 24.7177 14.0528 24.542 14.2285C24.3663 14.4042 24.1281 14.503 23.8796 14.5031H10.8014C10.6759 14.5071 10.5508 14.4858 10.4337 14.4405C10.3165 14.3952 10.2097 14.3268 10.1195 14.2394C10.0292 14.152 9.95752 14.0473 9.90853 13.9317C9.85955 13.816 9.83431 13.6917 9.83431 13.5661C9.83431 13.4404 9.85955 13.3161 9.90853 13.2005C9.95752 13.0848 10.0292 12.9801 10.1195 12.8927C10.2097 12.8053 10.3165 12.737 10.4337 12.6917C10.5508 12.6463 10.6759 12.6251 10.8014 12.629H23.8796ZM6.33708 12.629C6.85786 12.629 7.28114 13.0457 7.28114 13.5661C7.27953 13.8153 7.17932 14.0538 7.00242 14.2293C6.82553 14.4049 6.58632 14.5033 6.33708 14.5031H5.63489C5.1202 14.5031 4.69739 14.0803 4.69739 13.5661C4.69751 13.3175 4.79634 13.0792 4.97214 12.9034C5.14794 12.7277 5.38633 12.629 5.63489 12.629H6.33708ZM30.1327 0.344492L38.6625 9.60371C38.8299 9.78659 38.9177 10.0284 38.9067 10.2761C38.8957 10.5237 38.7868 10.7568 38.604 10.9242C38.4323 11.0831 38.207 11.1715 37.973 11.1717H32.0977C31.6212 11.1715 31.1494 11.0771 30.7094 10.8941C30.2695 10.711 29.8701 10.4427 29.5341 10.1048L29.4755 10.0462C28.8278 9.37302 28.4662 8.47496 28.4668 7.54074V0.936992C28.4669 0.688433 28.5657 0.450097 28.7415 0.274383C28.9173 0.0986686 29.1557 -3.90935e-05 29.4043 -3.90625e-05C29.6963 -3.90625e-05 29.9569 0.136367 30.1327 0.344492ZM35.8393 9.29809L30.3408 3.33746V7.54121C30.3401 7.98823 30.5101 8.41867 30.8161 8.74449L30.8555 8.78387C31.0186 8.94693 31.2123 9.07623 31.4255 9.16439C31.6386 9.25254 31.867 9.29781 32.0977 9.29762L35.8393 9.29809ZM42.6061 5.04887C42.5818 5.16936 42.5338 5.28382 42.4649 5.38558C42.3959 5.48735 42.3074 5.57437 42.2045 5.6416C42.1016 5.70882 41.9863 5.7549 41.8655 5.77715C41.7446 5.79941 41.6205 5.79739 41.5004 5.77121C41.3802 5.74688 41.2661 5.69911 41.1644 5.63065C41.0628 5.56218 40.9756 5.47435 40.9079 5.37218C40.8402 5.27001 40.7933 5.1555 40.7699 5.0352C40.7465 4.91489 40.747 4.79116 40.7714 4.67105L41.1296 2.96621L41.5979 0.747617C41.6415 0.536438 41.7565 0.346724 41.9236 0.210388C42.0906 0.0740519 42.2996 -0.000587998 42.5152 -0.000976562H45.7946C46.2694 -0.000976562 46.6604 0.350586 46.725 0.812305L47.4146 4.09168C47.896 4.22855 48.3647 4.39121 48.8199 4.57965C49.2821 4.76855 49.7307 4.9898 50.16 5.23074L53.0297 3.35668C53.2088 3.24125 53.4219 3.19059 53.6338 3.2131C53.8456 3.23561 54.0433 3.32995 54.1941 3.48043H54.2011L55.3594 4.63871C55.3721 4.6584 55.3918 4.67152 55.4054 4.69074L56.5177 5.80355C56.8425 6.1223 56.8758 6.62996 56.6222 6.99418L54.7674 9.83715C55.0136 10.2702 55.2331 10.7179 55.4246 11.1778C55.6069 11.6329 55.7696 12.1017 55.906 12.5831L59.2505 13.2923C59.4705 13.3353 59.6675 13.4565 59.8051 13.6335C59.9427 13.8105 60.0117 14.0313 59.9991 14.2551V17.4834C59.9991 17.9582 59.648 18.3553 59.1858 18.4139L55.9065 19.1034C55.7725 19.5805 55.6118 20.0497 55.425 20.5087C55.1567 21.1562 54.8324 21.7791 54.4557 22.3701C54.3906 22.4751 54.3052 22.5661 54.2046 22.6378C54.104 22.7095 53.9901 22.7604 53.8696 22.7876C53.7491 22.8148 53.6244 22.8178 53.5027 22.7964C53.3811 22.7749 53.2649 22.7294 53.161 22.6626C52.9514 22.5288 52.8034 22.3172 52.7497 22.0743C52.696 21.8315 52.7409 21.5772 52.8746 21.3675C53.5028 20.3804 53.9583 19.2937 54.2218 18.1537C54.2527 17.9683 54.3388 17.7965 54.4688 17.6607C54.5988 17.5249 54.7668 17.4314 54.9507 17.3925L58.125 16.7287V15.8437H58.1316V14.9653L54.9497 14.295C54.7741 14.2583 54.6127 14.1719 54.4846 14.0462C54.3566 13.9205 54.2673 13.7607 54.2274 13.5857C54.101 13.007 53.9225 12.441 53.694 11.8945C53.4664 11.347 53.1919 10.8202 52.8736 10.32C52.7791 10.1684 52.7296 9.99321 52.7307 9.81464C52.7319 9.63606 52.7837 9.46148 52.8802 9.31121L54.6572 6.59152L54.084 6.01262C54.0647 5.99996 54.0521 5.98637 54.0319 5.96668L53.4075 5.3423L50.746 7.07949C50.5945 7.19577 50.4108 7.26252 50.22 7.27065C50.0291 7.27879 49.8404 7.22792 49.6796 7.12496C49.1792 6.8071 48.6524 6.53281 48.105 6.30512C47.5717 6.08459 47.0211 5.90837 46.4588 5.77824C46.2737 5.74812 46.1023 5.66216 45.9674 5.53189C45.8325 5.40162 45.7406 5.23326 45.7041 5.04934L45.0329 1.87355H43.2694L42.9638 3.34402L42.6061 5.04887ZM44.1549 10.0396C43.6341 10.0396 43.2174 9.62293 43.2174 9.10262C43.2174 8.5823 43.6341 8.16559 44.1549 8.16559C46.2755 8.16559 48.195 9.02481 49.5877 10.417C50.3008 11.1291 50.8663 11.9751 51.2515 12.9064C51.6367 13.8377 51.8342 14.8359 51.8325 15.8437C51.8338 16.395 51.7748 16.9449 51.6568 17.4834C51.5392 18.0208 51.3649 18.5442 51.1369 19.0448C51.0331 19.2707 50.844 19.4463 50.6109 19.5329C50.3779 19.6196 50.12 19.6103 49.8938 19.507C49.7826 19.4558 49.6827 19.3831 49.5996 19.2932C49.5166 19.2033 49.4521 19.0979 49.4098 18.9831C49.3675 18.8682 49.3483 18.7462 49.3533 18.6239C49.3582 18.5016 49.3872 18.3815 49.4386 18.2704C49.6074 17.9062 49.7377 17.5092 49.8286 17.0925C49.9135 16.6893 49.959 16.2726 49.959 15.8432C49.959 14.2425 49.3083 12.7912 48.2607 11.7375C47.1708 10.6503 45.6943 10.0398 44.1549 10.0396Z" fill="#00B7DF"/>
<path d="M33.5034 35.6055H39.6909C40.1794 35.6055 40.6214 35.807 40.9406 36.1253L40.9472 36.1319C41.2798 36.4654 41.4669 36.9171 41.4675 37.3881V44.2464C41.4675 45.5866 40.9214 46.8034 40.0359 47.688C39.158 48.5734 37.9345 49.12 36.5939 49.12C35.2533 49.12 34.0364 48.5734 33.1519 47.688C32.273 46.8034 31.7198 45.587 31.7198 44.2464V37.3881C31.7198 36.9002 31.9219 36.4506 32.2472 36.1319V36.1253C32.5816 35.794 33.0327 35.6074 33.5034 35.6055ZM39.5939 37.4795H33.6009V44.2464C33.6002 44.6395 33.6775 45.0289 33.8283 45.3919C33.979 45.755 34.2004 46.0845 34.4794 46.3614C34.7562 46.6408 35.0856 46.8628 35.4484 47.0146C35.8113 47.1664 36.2006 47.245 36.5939 47.2459C36.9883 47.2457 37.3788 47.1675 37.7429 47.0157C38.1069 46.8638 38.4373 46.6415 38.715 46.3614C39.2762 45.8004 39.5923 45.0399 39.5939 44.2464V37.4795Z" fill="#00B7DF"/>
<path d="M36.5934 45.0586C37.1109 45.0586 37.5304 44.6391 37.5304 44.1216C37.5304 43.6041 37.1109 43.1846 36.5934 43.1846C36.0759 43.1846 35.6564 43.6041 35.6564 44.1216C35.6564 44.6391 36.0759 45.0586 36.5934 45.0586Z" fill="#00B7DF"/>
</g>
<defs>
<clipPath id="clip0_3308_2750">
<rect width="60" height="60" fill="white"/>
</clipPath>
</defs>
</svg>
