<svg width="70" height="70" viewBox="0 0 70 70" fill="none" xmlns="http://www.w3.org/2000/svg">
<path d="M19.6875 30.625H28.4375C28.7276 30.625 29.0058 30.5098 29.2109 30.3047C29.416 30.0996 29.5312 29.8214 29.5312 29.5313V21.2344L31.3984 19.3672C31.6035 19.1621 31.7188 18.8839 31.7188 18.5938C31.7188 18.3037 31.6035 18.0255 31.3984 17.8204C31.1933 17.6152 30.9151 17.5 30.625 17.5C30.3349 17.5 30.0567 17.6152 29.8516 17.8204L27.9844 19.6875H19.6875C19.3974 19.6875 19.1192 19.8028 18.9141 20.0079C18.709 20.213 18.5938 20.4912 18.5938 20.7813V29.5313C18.5938 29.8214 18.709 30.0996 18.9141 30.3047C19.1192 30.5098 19.3974 30.625 19.6875 30.625ZM27.3438 28.4375H20.7812V23.4219L23.2891 25.9297C23.3906 26.0313 23.5112 26.1118 23.6439 26.1668C23.7766 26.2218 23.9189 26.2501 24.0625 26.2501C24.2061 26.2501 24.3484 26.2218 24.4811 26.1668C24.6138 26.1118 24.7344 26.0313 24.8359 25.9297L27.3438 23.4219V28.4375ZM24.0625 23.6096L22.3281 21.875H25.7969L24.0625 23.6096ZM32.8125 28.4375H51.4062C51.6963 28.4375 51.9745 28.3223 52.1796 28.1172C52.3848 27.9121 52.5 27.6339 52.5 27.3438C52.5 27.0537 52.3848 26.7755 52.1796 26.5704C51.9745 26.3653 51.6963 26.25 51.4062 26.25H32.8125C32.5224 26.25 32.2442 26.3653 32.0391 26.5704C31.834 26.7755 31.7188 27.0537 31.7188 27.3438C31.7188 27.6339 31.834 27.9121 32.0391 28.1172C32.2442 28.3223 32.5224 28.4375 32.8125 28.4375ZM51.4062 32.8125H18.5938C18.3037 32.8125 18.0255 32.9278 17.8204 33.1329C17.6152 33.338 17.5 33.6162 17.5 33.9063C17.5 34.1964 17.6152 34.4746 17.8204 34.6797C18.0255 34.8848 18.3037 35 18.5938 35H51.4062C51.6963 35 51.9745 34.8848 52.1796 34.6797C52.3848 34.4746 52.5 34.1964 52.5 33.9063C52.5 33.6162 52.3848 33.338 52.1796 33.1329C51.9745 32.9278 51.6963 32.8125 51.4062 32.8125ZM51.4062 37.1875H18.5938C18.3037 37.1875 18.0255 37.3028 17.8204 37.5079C17.6152 37.713 17.5 37.9912 17.5 38.2813C17.5 38.5714 17.6152 38.8496 17.8204 39.0547C18.0255 39.2598 18.3037 39.375 18.5938 39.375H51.4062C51.6963 39.375 51.9745 39.2598 52.1796 39.0547C52.3848 38.8496 52.5 38.5714 52.5 38.2813C52.5 37.9912 52.3848 37.713 52.1796 37.5079C51.9745 37.3028 51.6963 37.1875 51.4062 37.1875ZM51.4062 41.5625H18.5938C18.3037 41.5625 18.0255 41.6778 17.8204 41.8829C17.6152 42.088 17.5 42.3662 17.5 42.6563C17.5 42.9464 17.6152 43.2246 17.8204 43.4297C18.0255 43.6348 18.3037 43.75 18.5938 43.75H51.4062C51.6963 43.75 51.9745 43.6348 52.1796 43.4297C52.3848 43.2246 52.5 42.9464 52.5 42.6563C52.5 42.3662 52.3848 42.088 52.1796 41.8829C51.9745 41.6778 51.6963 41.5625 51.4062 41.5625ZM51.4062 48.125H47.2895L45.3329 47.1468C45.1276 47.0442 44.8951 47.0087 44.6685 47.0455C44.4419 47.0823 44.2326 47.1895 44.0703 47.3519L43.75 47.6721L42.3359 46.2579C42.2344 46.1563 42.1138 46.0757 41.9811 46.0208C41.8484 45.9658 41.7061 45.9375 41.5625 45.9375C41.4189 45.9375 41.2766 45.9658 41.1439 46.0208C41.0112 46.0757 40.8906 46.1563 40.7891 46.2579L38.6016 48.4454C38.3965 48.6505 38.2812 48.9287 38.2812 49.2188C38.2812 49.5089 38.3965 49.7871 38.6016 49.9922C38.8067 50.1973 39.0849 50.3126 39.375 50.3126C39.6651 50.3126 39.9433 50.1973 40.1484 49.9922L41.5625 48.578L42.9766 49.9922C43.0781 50.0938 43.1987 50.1743 43.3314 50.2293C43.4641 50.2843 43.6064 50.3126 43.75 50.3126C43.8936 50.3126 44.0359 50.2843 44.1686 50.2293C44.3013 50.1743 44.4219 50.0938 44.5234 49.9922L45.0598 49.4559L46.5421 50.197C46.6939 50.273 46.8614 50.3125 47.0312 50.3125H51.4062C51.6963 50.3125 51.9745 50.1973 52.1796 49.9922C52.3848 49.7871 52.5 49.5089 52.5 49.2188C52.5 48.9287 52.3848 48.6505 52.1796 48.4454C51.9745 48.2403 51.6963 48.125 51.4062 48.125Z" fill="#00B7DF"/>
<path d="M67.8125 2.1875H61.25C60.9599 2.1875 60.6817 2.30273 60.4766 2.50785C60.2715 2.71297 60.1562 2.99117 60.1562 3.28125V4.52006L53.6434 5.45057L35.2506 1.12287C35.0367 1.07249 34.8125 1.08774 34.6073 1.16662L9.1093 10.9736C8.10711 11.3589 7.29045 12.1132 6.82701 13.0817C6.36357 14.0503 6.28853 15.1595 6.61728 16.1816C6.94603 17.2037 7.65363 18.0612 8.59479 18.5779C9.53595 19.0947 10.6392 19.2315 11.6781 18.9603L12.0312 18.8681V47.0296L9.84375 47.0281V45.9375C9.84375 45.6474 9.72852 45.3692 9.5234 45.1641C9.31828 44.959 9.04008 44.8438 8.75 44.8438H2.1875C1.89742 44.8438 1.61922 44.959 1.4141 45.1641C1.20898 45.3692 1.09375 45.6474 1.09375 45.9375V65.625C1.09375 65.9151 1.20898 66.1933 1.4141 66.3984C1.61922 66.6035 1.89742 66.7188 2.1875 66.7188H8.75C9.04008 66.7188 9.31828 66.6035 9.5234 66.3984C9.72852 66.1933 9.84375 65.9151 9.84375 65.625V64.3861L16.3566 63.4557L34.7494 67.7834C34.9633 67.8338 35.1875 67.8185 35.3927 67.7396L60.8907 57.9327C61.8928 57.5473 62.7094 56.793 63.1727 55.8245C63.6361 54.856 63.7112 53.7469 63.3825 52.7248C63.0537 51.7028 62.3462 50.8453 61.4051 50.3286C60.4641 49.8118 59.3609 49.6749 58.322 49.946L57.9688 50.0381V21.8766L60.1562 21.8781V22.9688C60.1562 23.2588 60.2715 23.537 60.4766 23.7421C60.6817 23.9473 60.9599 24.0625 61.25 24.0625H67.8125C68.1026 24.0625 68.3808 23.9473 68.5859 23.7421C68.791 23.537 68.9062 23.2588 68.9062 22.9688V3.28125C68.9062 2.99117 68.791 2.71297 68.5859 2.50785C68.3808 2.30273 68.1026 2.1875 67.8125 2.1875ZM7.65625 64.5312H3.28125V47.0312H7.65625V64.5312ZM58.8742 52.0625C59.3718 51.9337 59.8998 52.0001 60.3501 52.248C60.8004 52.4959 61.1388 52.9065 61.2961 53.3959C61.4534 53.8852 61.4176 54.4162 61.1961 54.88C60.9746 55.3438 60.5841 55.7054 60.1047 55.8906L34.9211 65.5763L16.6555 61.2787C16.5227 61.2473 16.3853 61.2412 16.2503 61.2605L9.84375 62.1764V49.2155L14.2179 49.2186C14.2364 49.217 14.257 49.2186 14.2766 49.2171L33.0229 48.2251C33.3659 48.2075 33.7031 48.3183 33.9689 48.5359C34.2346 48.7535 34.4098 49.0622 34.4603 49.4019C34.5107 49.7417 34.4328 50.088 34.2418 50.3734C34.0508 50.6588 33.7603 50.8629 33.4271 50.9458L22.7035 53.6264C22.4239 53.6984 22.1841 53.8781 22.0365 54.1262C21.8888 54.3743 21.8452 54.6707 21.9152 54.9508C21.9853 55.2309 22.1632 55.472 22.4102 55.6214C22.6573 55.7709 22.9534 55.8166 23.234 55.7486L27.6024 54.6565L35.6876 57.8905C35.9046 57.9774 36.1437 57.9924 36.3699 57.9333L58.8742 52.0625ZM36.1658 55.7266L31.2266 53.7504L33.9571 53.0677C34.8176 52.8528 35.5672 52.3252 36.0599 51.5878C36.5527 50.8504 36.7532 49.956 36.6225 49.0788C36.4918 48.2016 36.0392 47.4045 35.3529 46.8428C34.6666 46.2811 33.7957 45.995 32.91 46.0403L14.2188 47.0297V18.2975L33.8342 13.1804L38.7734 15.1558L36.0428 15.8386C35.1965 16.0488 34.4564 16.5617 33.9625 17.2803C33.4685 17.9989 33.2547 18.8736 33.3616 19.739C33.4685 20.6045 33.8886 21.4008 34.5425 21.9777C35.1965 22.5546 36.039 22.872 36.9111 22.87C36.9704 22.87 37.0301 22.8687 37.0899 22.8657L55.7812 21.8765V50.6088L36.1658 55.7266ZM55.7234 19.6897L36.9771 20.6817C36.6341 20.6993 36.2969 20.5885 36.0311 20.3709C35.7654 20.1533 35.5902 19.8446 35.5397 19.5049C35.4893 19.1651 35.5672 18.8188 35.7582 18.5334C35.9492 18.248 36.2397 18.0439 36.5729 17.961L47.2965 15.2802C47.5761 15.2082 47.8159 15.0286 47.9635 14.7805C48.1112 14.5324 48.1548 14.2359 48.0848 13.9558C48.0147 13.6757 47.8368 13.4347 47.5898 13.2852C47.3427 13.1358 47.0466 13.0901 46.766 13.1581L42.3974 14.2502L34.3124 11.0157C34.0954 10.9288 33.8563 10.9138 33.6301 10.9729L11.1258 16.8438C10.628 16.9733 10.0995 16.9074 9.64871 16.6596C9.19794 16.4119 8.85905 16.0011 8.70155 15.5114C8.54405 15.0217 8.57989 14.4904 8.80171 14.0263C9.02353 13.5622 9.41452 13.2006 9.89447 13.0156L35.0781 3.32992L53.3437 7.62754C53.4765 7.65877 53.6139 7.66494 53.7489 7.64572L60.1562 6.72998V19.6909C60.1562 19.6909 55.7431 19.6875 55.7234 19.689V19.6897ZM66.7188 21.875H62.3438V4.375H66.7188V21.875Z" fill="#00B7DF"/>
</svg>
