<svg width="60" height="60" viewBox="0 0 60 60" fill="none" xmlns="http://www.w3.org/2000/svg">
<g clip-path="url(#clip0_3316_2833)">
<path d="M8.4375 46.11V33.75H6.5625V46.11C6.01572 46.3027 5.54198 46.6599 5.20627 47.1326C4.87057 47.6053 4.68936 48.1702 4.6875 48.75C4.6875 50.3006 5.94937 51.5625 7.5 51.5625C9.05062 51.5625 10.3125 50.3006 10.3125 48.75C10.3106 48.1702 10.1294 47.6053 9.79373 47.1326C9.45802 46.6599 8.98428 46.3027 8.4375 46.11ZM7.5 49.6875C7.25136 49.6875 7.0129 49.5887 6.83709 49.4129C6.66127 49.2371 6.5625 48.9986 6.5625 48.75C6.5625 48.5014 6.66127 48.2629 6.83709 48.0871C7.0129 47.9113 7.25136 47.8125 7.5 47.8125C7.74864 47.8125 7.9871 47.9113 8.16291 48.0871C8.33873 48.2629 8.4375 48.5014 8.4375 48.75C8.4375 48.9986 8.33873 49.2371 8.16291 49.4129C7.9871 49.5887 7.74864 49.6875 7.5 49.6875ZM13.125 33.75C11.5744 33.75 10.3125 35.0119 10.3125 36.5625C10.3125 37.7831 11.0991 38.8144 12.1875 39.2025V51.5625H14.0625V39.2025C14.6093 39.0098 15.083 38.6526 15.4187 38.1799C15.7544 37.7072 15.9356 37.1422 15.9375 36.5625C15.9375 35.0119 14.6756 33.75 13.125 33.75ZM13.125 37.5C12.8764 37.5 12.6379 37.4012 12.4621 37.2254C12.2863 37.0496 12.1875 36.8111 12.1875 36.5625C12.1875 36.3139 12.2863 36.0754 12.4621 35.8996C12.6379 35.7238 12.8764 35.625 13.125 35.625C13.3736 35.625 13.6121 35.7238 13.7879 35.8996C13.9637 36.0754 14.0625 36.3139 14.0625 36.5625C14.0625 36.8111 13.9637 37.0496 13.7879 37.2254C13.6121 37.4012 13.3736 37.5 13.125 37.5ZM49.6875 46.11V33.75H47.8125V46.11C47.2657 46.3027 46.792 46.6599 46.4563 47.1326C46.1206 47.6053 45.9394 48.1702 45.9375 48.75C45.9375 50.3006 47.1994 51.5625 48.75 51.5625C50.3006 51.5625 51.5625 50.3006 51.5625 48.75C51.5606 48.1702 51.3794 47.6053 51.0437 47.1326C50.708 46.6599 50.2343 46.3027 49.6875 46.11ZM48.75 49.6875C48.5014 49.6875 48.2629 49.5887 48.0871 49.4129C47.9113 49.2371 47.8125 48.9986 47.8125 48.75C47.8125 48.5014 47.9113 48.2629 48.0871 48.0871C48.2629 47.9113 48.5014 47.8125 48.75 47.8125C48.9986 47.8125 49.2371 47.9113 49.4129 48.0871C49.5887 48.2629 49.6875 48.5014 49.6875 48.75C49.6875 48.9986 49.5887 49.2371 49.4129 49.4129C49.2371 49.5887 48.9986 49.6875 48.75 49.6875ZM54.375 33.75C52.8244 33.75 51.5625 35.0119 51.5625 36.5625C51.5625 37.7831 52.3491 38.8144 53.4375 39.2025V51.5625H55.3125V39.2025C55.8593 39.0098 56.333 38.6526 56.6687 38.1799C57.0044 37.7072 57.1856 37.1422 57.1875 36.5625C57.1875 35.0119 55.9256 33.75 54.375 33.75ZM54.375 37.5C54.1264 37.5 53.8879 37.4012 53.7121 37.2254C53.5363 37.0496 53.4375 36.8111 53.4375 36.5625C53.4375 36.3139 53.5363 36.0754 53.7121 35.8996C53.8879 35.7238 54.1264 35.625 54.375 35.625C54.6236 35.625 54.8621 35.7238 55.0379 35.8996C55.2137 36.0754 55.3125 36.3139 55.3125 36.5625C55.3125 36.8111 55.2137 37.0496 55.0379 37.2254C54.8621 37.4012 54.6236 37.5 54.375 37.5Z" fill="#00B7DF"/>
<path d="M41.25 30.9375C40.8797 30.9375 40.5281 31.0134 40.2038 31.1438C40.0442 30.5481 39.6929 30.0215 39.2043 29.6453C38.7156 29.2692 38.1167 29.0644 37.5 29.0625C36.8059 29.0649 36.1375 29.3255 35.625 29.7938C35.1127 29.3252 34.4442 29.0645 33.75 29.0625C33.42 29.0625 33.1069 29.13 32.8125 29.235V21.1678C36.7106 20.0634 39.5953 16.7391 40.1906 12.7688L44.1544 14.9494C41.8303 16.6566 40.3125 19.4016 40.3125 22.5C40.3125 27.6694 44.5181 31.875 49.6875 31.875C54.8569 31.875 59.0625 27.6694 59.0625 22.5C59.0625 17.3306 54.8569 13.125 49.6875 13.125C48.4414 13.1238 47.2077 13.3724 46.0594 13.8562L40.2834 10.6791C39.9853 5.25937 35.4938 0.9375 30 0.9375C24.5063 0.9375 20.0147 5.25938 19.7166 10.68L13.9406 13.8562C12.7923 13.3724 11.5586 13.1237 10.3125 13.125C5.14313 13.125 0.9375 17.3306 0.9375 22.5C0.9375 27.6694 5.14313 31.875 10.3125 31.875C15.4819 31.875 19.6875 27.6694 19.6875 22.5C19.6875 19.4006 18.1697 16.6566 15.8447 14.9484L19.8094 12.7678C20.4047 16.7419 23.2875 20.0644 27.1884 21.1688V38.4497C27.1883 38.8784 27.0902 39.3013 26.9016 39.6862L26.115 35.7544C25.8379 34.3862 25.097 33.1557 24.0175 32.2707C22.9379 31.3857 21.5859 30.9005 20.19 30.8972C19.56 30.8982 18.9561 31.1489 18.5106 31.5944C18.0651 32.0398 17.8144 32.6438 17.8134 33.2738C17.8134 33.7444 17.9513 34.2 18.2128 34.5919L19.1775 36.0394C19.5347 36.5747 19.7653 37.1953 19.845 37.8337L20.4938 43.0209C20.6006 43.8862 20.8744 44.7084 21.2784 45.4088L24.375 51.7781V53.4375H22.5V59.0625H43.125V53.4375H41.25V51.8747L42.75 49.875C43.5997 48.7379 44.0599 47.357 44.0625 45.9375V33.75C44.0625 32.1994 42.8006 30.9375 41.25 30.9375ZM49.6875 30C48.0658 29.9994 46.4885 29.4698 45.195 28.4916C46.2497 27.0928 47.9091 26.25 49.6875 26.25C51.4659 26.25 53.1253 27.0928 54.18 28.4916C52.8865 29.4698 51.3092 29.9994 49.6875 30ZM46.875 21.5625C46.875 20.0119 48.1369 18.75 49.6875 18.75C51.2381 18.75 52.5 20.0119 52.5 21.5625C52.5 23.1131 51.2381 24.375 49.6875 24.375C48.1369 24.375 46.875 23.1131 46.875 21.5625ZM49.6875 15C53.8228 15 57.1875 18.3647 57.1875 22.5C57.1884 24.2074 56.6033 25.8634 55.53 27.1912C54.7943 26.2737 53.853 25.5421 52.7822 25.0556C53.7516 24.1959 54.375 22.9566 54.375 21.5625C54.375 18.9778 52.2722 16.875 49.6875 16.875C47.1028 16.875 45 18.9778 45 21.5625C45 22.9566 45.6234 24.1959 46.5928 25.0556C45.5222 25.5424 44.581 26.274 43.845 27.1912C42.7717 25.8634 42.1866 24.2074 42.1875 22.5C42.1875 18.3647 45.5522 15 49.6875 15ZM10.3125 30C8.69076 29.9994 7.11348 29.4698 5.82 28.4916C6.87469 27.0928 8.53406 26.25 10.3125 26.25C12.0909 26.25 13.7503 27.0928 14.805 28.4916C13.5115 29.4698 11.9342 29.9994 10.3125 30ZM7.5 21.5625C7.5 20.0119 8.76188 18.75 10.3125 18.75C11.8631 18.75 13.125 20.0119 13.125 21.5625C13.125 23.1131 11.8631 24.375 10.3125 24.375C8.76188 24.375 7.5 23.1131 7.5 21.5625ZM17.8125 22.5C17.8134 24.2074 17.2283 25.8634 16.155 27.1912C15.4193 26.2737 14.478 25.5421 13.4072 25.0556C14.3766 24.1959 15 22.9566 15 21.5625C15 18.9778 12.8972 16.875 10.3125 16.875C7.72781 16.875 5.625 18.9778 5.625 21.5625C5.625 22.9566 6.24844 24.1959 7.21781 25.0556C6.14723 25.5424 5.206 26.274 4.47 27.1912C3.39672 25.8634 2.81163 24.2074 2.8125 22.5C2.8125 18.3647 6.17719 15 10.3125 15C14.4478 15 17.8125 18.3647 17.8125 22.5ZM21.5625 11.25C21.5625 6.59719 25.3472 2.8125 30 2.8125C34.6528 2.8125 38.4375 6.59719 38.4375 11.25C38.434 13.0906 37.8274 14.8794 36.7106 16.3425C35.9469 14.8003 34.6738 13.5693 33.1069 12.8578C34.0687 11.9991 34.6875 10.7634 34.6875 9.375C34.6875 6.79031 32.5847 4.6875 30 4.6875C27.4153 4.6875 25.3125 6.79031 25.3125 9.375C25.3125 10.7634 25.9313 11.9991 26.8931 12.8578C25.3257 13.5694 24.0522 14.8008 23.2884 16.3434C22.1715 14.8801 21.5652 13.0909 21.5625 11.25ZM32.8125 9.375C32.8125 10.9256 31.5506 12.1875 30 12.1875C28.4494 12.1875 27.1875 10.9256 27.1875 9.375C27.1875 7.82438 28.4494 6.5625 30 6.5625C31.5506 6.5625 32.8125 7.82438 32.8125 9.375ZM24.7144 17.8153C25.0966 16.7183 25.8109 15.7676 26.7581 15.0951C27.7053 14.4226 28.8383 14.0617 30 14.0625C31.1613 14.0621 32.294 14.4229 33.241 15.095C34.1881 15.7671 34.9026 16.7171 35.2856 17.8134C34.4537 18.4899 33.4995 19.0001 32.475 19.3162C32.0016 18.4266 31.0763 17.8125 30 17.8125C28.9237 17.8125 27.9984 18.4266 27.5259 19.3162C26.5013 19.0006 25.5468 18.491 24.7144 17.8153ZM41.25 57.1875H24.375V55.3125H41.25V57.1875ZM42.1875 45.9375C42.1856 46.9514 41.8569 47.9377 41.25 48.75L39.375 51.2503V53.4375H26.25V51.3469L22.935 44.5341C22.6268 43.9978 22.4291 43.4052 22.3538 42.7913L21.705 37.6031C21.5882 36.6727 21.2571 35.7822 20.7375 35.0016L19.7719 33.5531C19.7215 33.4776 19.6925 33.3898 19.6881 33.2991C19.6837 33.2084 19.704 33.1182 19.7468 33.0381C19.7896 32.9581 19.8534 32.8911 19.9313 32.8444C20.0092 32.7978 20.0983 32.7731 20.1891 32.7731C21.1518 32.7755 22.0842 33.1101 22.8287 33.7204C23.5733 34.3307 24.0843 35.1793 24.2756 36.1228L25.4813 42.1481H27.7669L28.5675 40.5459C28.8909 39.8991 29.0625 39.1734 29.0625 38.4506V20.625C29.0625 20.3764 29.1613 20.1379 29.3371 19.9621C29.5129 19.7863 29.7514 19.6875 30 19.6875C30.2486 19.6875 30.4871 19.7863 30.6629 19.9621C30.8387 20.1379 30.9375 20.3764 30.9375 20.625V35.625H32.8125V31.875C32.8125 31.6264 32.9113 31.3879 33.0871 31.2121C33.2629 31.0363 33.5014 30.9375 33.75 30.9375C33.9986 30.9375 34.2371 31.0363 34.4129 31.2121C34.5887 31.3879 34.6875 31.6264 34.6875 31.875V35.625H36.5625V31.875C36.5625 31.6264 36.6613 31.3879 36.8371 31.2121C37.0129 31.0363 37.2514 30.9375 37.5 30.9375C37.7486 30.9375 37.9871 31.0363 38.1629 31.2121C38.3387 31.3879 38.4375 31.6264 38.4375 31.875V35.625H40.3125V33.75C40.3125 33.5014 40.4113 33.2629 40.5871 33.0871C40.7629 32.9113 41.0014 32.8125 41.25 32.8125C41.4986 32.8125 41.7371 32.9113 41.9129 33.0871C42.0887 33.2629 42.1875 33.5014 42.1875 33.75V45.9375Z" fill="#00B7DF"/>
</g>
<defs>
<clipPath id="clip0_3316_2833">
<rect width="60" height="60" fill="white"/>
</clipPath>
</defs>
</svg>
